<svg width="512" height="512" viewBox="0 0 512 512" fill="none" xmlns="http://www.w3.org/2000/svg">
<g clip-path="url(#clip0_476_18)">
<path d="M128 0C92.7 0 64 28.7 64 64V448C64 483.3 92.7 512 128 512H384C419.3 512 448 483.3 448 448V160H320C302.3 160 288 145.7 288 128V0H128ZM320 0V128H448L320 0ZM144 64H208C216.8 64 224 71.2 224 80C224 88.8 216.8 96 208 96H144C135.2 96 128 88.8 128 80C128 71.2 135.2 64 144 64ZM144 128H208C216.8 128 224 135.2 224 144C224 152.8 216.8 160 208 160H144C135.2 160 128 152.8 128 144C128 135.2 135.2 128 144 128ZM160 224H352C369.7 224 384 238.3 384 256V320C384 337.7 369.7 352 352 352H160C142.3 352 128 337.7 128 320V256C128 238.3 142.3 224 160 224ZM160 256V320H352V256H160ZM304 416H368C376.8 416 384 423.2 384 432C384 440.8 376.8 448 368 448H304C295.2 448 288 440.8 288 432C288 423.2 295.2 416 304 416Z" fill="#4040FF"/>
</g>
<defs>
<clipPath id="clip0_476_18">
<rect width="384" height="512" fill="white" transform="translate(64)"/>
</clipPath>
</defs>
</svg>
