<svg width="512" height="512" viewBox="0 0 512 512" fill="none" xmlns="http://www.w3.org/2000/svg">
<g clip-path="url(#clip0_477_37)">
<path d="M128 0C92.7 0 64 28.7 64 64V448C64 483.3 92.7 512 128 512H384C419.3 512 448 483.3 448 448V160H320C302.3 160 288 145.7 288 128V0H128ZM320 0V128H448L320 0ZM176 256H336C344.8 256 352 263.2 352 272C352 280.8 344.8 288 336 288H176C167.2 288 160 280.8 160 272C160 263.2 167.2 256 176 256ZM176 320H336C344.8 320 352 327.2 352 336C352 344.8 344.8 352 336 352H176C167.2 352 160 344.8 160 336C160 327.2 167.2 320 176 320ZM176 384H336C344.8 384 352 391.2 352 400C352 408.8 344.8 416 336 416H176C167.2 416 160 408.8 160 400C160 391.2 167.2 384 176 384Z" fill="#4040FF"/>
</g>
<defs>
<clipPath id="clip0_477_37">
<rect width="384" height="512" fill="white" transform="translate(64)"/>
</clipPath>
</defs>
</svg>
