<svg xmlns="http://www.w3.org/2000/svg" xmlns:xlink="http://www.w3.org/1999/xlink" width="960" zoomAndPan="magnify" viewBox="0 0 720 86.249997" height="115" preserveAspectRatio="xMidYMid meet" version="1.0"><defs><g/><clipPath id="b9b77b0fb0"><path d="M 0.429688 6 L 270 6 L 270 71 L 0.429688 71 Z M 0.429688 6 " clip-rule="nonzero"/></clipPath><clipPath id="89da029cd2"><rect x="0" width="270" y="0" height="65"/></clipPath><clipPath id="9bdae30904"><path d="M 284.304688 0.707031 L 358.105469 0.707031 L 358.105469 74.507812 L 284.304688 74.507812 Z M 284.304688 0.707031 " clip-rule="nonzero"/></clipPath><clipPath id="59ddce1742"><path d="M 370 6 L 686.625 6 L 686.625 70 L 370 70 Z M 370 6 " clip-rule="nonzero"/></clipPath><clipPath id="078cfde756"><rect x="0" width="317" y="0" height="64"/></clipPath><clipPath id="47336325d5"><rect x="0" width="687" y="0" height="75"/></clipPath></defs><g transform="matrix(1, 0, 0, 1, 11, 5)"><g clip-path="url(#47336325d5)"><g clip-path="url(#b9b77b0fb0)"><g transform="matrix(1, 0, 0, 1, 0, 6)"><g clip-path="url(#89da029cd2)"><g fill="#4040ff" fill-opacity="1"><g transform="translate(0.654105, 50.358455)"><g><path d="M 16.28125 0.15625 L 14.109375 -0.046875 L 13.0625 0.109375 L 6.609375 0 L 5.546875 0.109375 L 4.5 -0.421875 L 3.96875 -2.0625 L 3.96875 -4.75 L 3.859375 -5.765625 L 3.90625 -35.3125 L 4.390625 -36.421875 L 5.546875 -36.890625 L 6.609375 -36.84375 L 7.5625 -37 L 19.609375 -36.890625 L 22.734375 -36.421875 L 23.84375 -36.15625 L 24.734375 -35.734375 L 25.796875 -35.515625 L 26.796875 -34.9375 L 29.5 -33.140625 L 32.296875 -30.03125 L 34.09375 -27.21875 L 34.515625 -26.21875 L 35.203125 -24.203125 L 35.9375 -20.03125 L 36 -18.5 L 35.84375 -16.8125 L 35.84375 -15.703125 L 35.6875 -14.640625 L 35.359375 -13.75 L 35.15625 -12.640625 L 34.890625 -11.625 L 34.046875 -9.5625 L 33.40625 -8.71875 L 32.875 -7.671875 L 30.28125 -4.328125 L 26.75 -1.953125 L 24.265625 -0.90625 L 22.09375 -0.53125 L 20.5625 -0.046875 L 19.5 -0.046875 L 17.859375 0.15625 Z M 16.125 -8.515625 L 17.703125 -8.5625 L 19.984375 -8.828125 L 21.515625 -9.296875 L 23.3125 -10.46875 L 25.265625 -12.6875 L 26.171875 -14.640625 L 26.6875 -18.34375 L 25.84375 -23 L 25.375 -23.9375 L 24.84375 -24.84375 L 24.046875 -25.796875 L 23.265625 -26.53125 L 22.46875 -27.109375 L 21.515625 -27.59375 L 19.453125 -28.171875 L 17.921875 -28.328125 L 15.703125 -28.28125 L 14 -27.90625 L 13.484375 -26.6875 L 13.375 -25.796875 L 13.484375 -18.5 L 13.265625 -15.859375 L 13.484375 -13.265625 L 13.421875 -11.09375 L 13.484375 -10.203125 L 13.90625 -9.203125 L 15.125 -8.609375 Z M 16.125 -8.515625 "/></g></g></g><g fill="#4040ff" fill-opacity="1"><g transform="translate(39.083845, 50.358455)"><g><path d="M 3.8125 -1.53125 L 4.015625 -2.59375 L 4.0625 -3.640625 L 3.96875 -5.703125 L 3.96875 -6.765625 L 3.859375 -7.984375 L 4.015625 -8.9375 L 3.96875 -9.9375 L 4.0625 -11.09375 L 3.90625 -12.203125 L 4.015625 -14.328125 L 3.859375 -16.390625 L 4.015625 -17.5 L 4.015625 -26.953125 L 3.90625 -27.90625 L 4.015625 -29.015625 L 3.8125 -31.71875 L 4.015625 -33.25 L 3.90625 -35.359375 L 4.4375 -36.53125 L 5.96875 -36.890625 L 12.890625 -37.046875 L 13.84375 -36.953125 L 15.90625 -37 L 16.96875 -36.890625 L 19.296875 -37 L 20.34375 -36.84375 L 21.296875 -36.953125 L 25.53125 -36.890625 L 26.640625 -36.421875 L 27.171875 -35.359375 L 27.015625 -34.359375 L 26.953125 -33.203125 L 27.109375 -32.1875 L 27.21875 -30.03125 L 26.640625 -29.078125 L 25.53125 -28.484375 L 15.375 -28.4375 L 13.75 -27.96875 L 13.21875 -26.421875 L 13.328125 -24.796875 L 13.953125 -23.84375 L 14.859375 -23.265625 L 19.03125 -23.3125 L 20.25 -23.203125 L 21.359375 -23.203125 L 22.40625 -23.3125 L 24.53125 -23.265625 L 25.421875 -22.671875 L 25.90625 -21.671875 L 26 -20.609375 L 25.90625 -16.4375 L 25.375 -15.4375 L 24.3125 -14.859375 L 23.359375 -14.796875 L 22.25 -14.90625 L 20.828125 -14.796875 L 18.03125 -14.953125 L 16.96875 -14.859375 L 14.90625 -14.859375 L 13.953125 -14.265625 L 13.484375 -13.15625 L 13.421875 -10.578125 L 13.90625 -8.9375 L 15.015625 -8.296875 L 16.171875 -8.40625 L 17.34375 -8.296875 L 18.34375 -8.453125 L 25.3125 -8.359375 L 26.90625 -7.828125 L 27.59375 -6.765625 L 27.484375 -5.765625 L 27.546875 -2.484375 L 27.4375 -1.484375 L 26.953125 -0.46875 L 25.84375 0.046875 L 24.84375 0.15625 L 21.625 -0.046875 L 18.390625 0.109375 L 17.4375 -0.046875 L 5.5 0.046875 L 4.5 -0.53125 Z M 3.8125 -1.53125 "/></g></g></g><g fill="#4040ff" fill-opacity="1"><g transform="translate(69.373037, 50.358455)"><g><path d="M 0.6875 -1.421875 L 1.328125 -3.640625 L 1.796875 -4.703125 L 2.4375 -5.546875 L 3.96875 -9.40625 L 5.4375 -12.15625 L 5.8125 -13.21875 L 6.296875 -14.0625 L 6.609375 -15.171875 L 7.34375 -16.546875 L 7.71875 -17.546875 L 8.515625 -18.921875 L 9.359375 -20.828125 L 9.9375 -21.78125 L 10.203125 -22.671875 L 13.15625 -29.34375 L 13.75 -30.28125 L 16.015625 -35.046875 L 16.328125 -36 L 17.34375 -36.953125 L 19.03125 -37.484375 L 20.828125 -37 L 21.78125 -36 L 22.09375 -35 L 22.578125 -34.203125 L 23.421875 -32.1875 L 24.46875 -30.234375 L 25.265625 -28.390625 L 25.53125 -27.546875 L 26.484375 -25.53125 L 26.796875 -24.53125 L 27.859375 -22.671875 L 28.125 -21.671875 L 28.65625 -20.78125 L 29.078125 -19.875 L 29.65625 -18.921875 L 29.96875 -17.859375 L 30.453125 -17.078125 L 30.8125 -16.015625 L 31.296875 -15.125 L 31.71875 -14.0625 L 32.296875 -13.21875 L 33.03125 -11.265625 L 33.5625 -10.359375 L 33.9375 -9.359375 L 34.828125 -7.453125 L 35.15625 -6.453125 L 35.6875 -5.65625 L 36 -4.59375 L 36.6875 -3.703125 L 37.046875 -2.75 L 37.375 -1.421875 L 37.15625 -0.3125 L 36.203125 0 L 32.9375 0.109375 L 31.078125 -0.046875 L 30.125 0.046875 L 28.75 -0.46875 L 27.859375 -1.328125 L 27.28125 -2.265625 L 27.015625 -3.21875 L 25.90625 -4.0625 L 24.15625 -4.65625 L 21.671875 -4.546875 L 20.5625 -4.65625 L 19.609375 -4.65625 L 18.390625 -4.5 L 17.28125 -4.65625 L 14.328125 -4.59375 L 13.265625 -4.703125 L 12 -4.171875 L 11.09375 -3.171875 L 10.203125 -1.375 L 9.25 -0.421875 L 8.03125 0.109375 L 6.65625 -0.046875 L 2.015625 -0.046875 L 0.953125 -0.3125 Z M 17.015625 -13.0625 L 21.140625 -13.109375 L 22.046875 -13.53125 L 22.140625 -14.484375 L 21.78125 -15.4375 L 21.25 -16.484375 L 21.03125 -17.34375 L 20.453125 -18.234375 L 19.765625 -20.296875 L 19.140625 -20.71875 L 18.453125 -20.1875 L 17.96875 -19.34375 L 15.859375 -14.53125 L 16.015625 -13.484375 Z M 17.015625 -13.0625 "/></g></g></g><g fill="#4040ff" fill-opacity="1"><g transform="translate(107.749924, 50.358455)"><g><path d="M 3.96875 -1.640625 L 4.0625 -3.640625 L 3.90625 -7.875 L 4.015625 -8.9375 L 3.90625 -13.15625 L 4.0625 -15.21875 L 3.90625 -16.328125 L 4.0625 -17.34375 L 3.90625 -19.609375 L 4.0625 -21.625 L 3.859375 -25.84375 L 4.015625 -26.90625 L 3.859375 -27.96875 L 4.015625 -29.125 L 3.90625 -31.140625 L 3.96875 -32.1875 L 3.859375 -33.25 L 3.859375 -35.421875 L 4.65625 -36.421875 L 5.609375 -37 L 6.71875 -36.953125 L 7.671875 -37 L 8.71875 -36.890625 L 12.109375 -37 L 13.15625 -36.890625 L 20.671875 -36.84375 L 22.828125 -36.421875 L 25.75 -35.46875 L 26.796875 -34.9375 L 28.75 -33.71875 L 30.234375 -32.296875 L 31.140625 -31.609375 L 32.515625 -29.96875 L 32.9375 -29.078125 L 34.140625 -27.28125 L 34.9375 -25.15625 L 35.203125 -24.203125 L 35.3125 -23.09375 L 36.109375 -20.09375 L 35.890625 -16.703125 L 35.9375 -15.8125 L 35.6875 -14.6875 L 35.515625 -13.578125 L 35.15625 -12.640625 L 34.9375 -11.578125 L 34.40625 -10.578125 L 34.140625 -9.5625 L 32.515625 -6.921875 L 30.390625 -4.5 L 25.90625 -1.484375 L 22.828125 -0.53125 L 19.453125 -0.046875 L 9.9375 0 L 8.828125 0.15625 L 7.765625 0.15625 L 6.65625 0 L 5.4375 0 L 4.59375 -0.46875 Z M 15.171875 -8.515625 L 19.5625 -8.71875 L 21.453125 -9.25 L 22.515625 -9.78125 L 23.359375 -10.3125 L 24 -11.15625 L 24.6875 -11.890625 L 25.375 -12.84375 L 26.171875 -14.75 L 26.484375 -15.75 L 26.75 -18.34375 L 26.59375 -19.984375 L 25.953125 -23.09375 L 25.265625 -23.9375 L 24.6875 -24.953125 L 23.359375 -26.421875 L 21.5625 -27.59375 L 19.453125 -28.234375 L 17.859375 -28.328125 L 16.75 -28.28125 L 15.640625 -28.328125 L 14.109375 -27.75 L 13.484375 -26.796875 L 13.484375 -13.21875 L 13.328125 -12.15625 L 13.53125 -11.203125 L 13.421875 -10.15625 L 13.90625 -8.984375 Z M 15.171875 -8.515625 "/></g></g></g><g fill="#4040ff" fill-opacity="1"><g transform="translate(146.179664, 50.358455)"><g><path d="M 3.96875 -1.53125 L 3.859375 -2.640625 L 4.0625 -3.640625 L 3.96875 -4.703125 L 4.015625 -11.15625 L 3.90625 -12.109375 L 3.859375 -14.21875 L 4.015625 -15.28125 L 3.859375 -17.390625 L 4.015625 -18.390625 L 3.859375 -20.671875 L 4.015625 -21.671875 L 3.90625 -22.734375 L 4.0625 -23.6875 L 3.90625 -24.796875 L 4.015625 -25.84375 L 3.96875 -26.859375 L 4.125 -28.015625 L 4.015625 -29.015625 L 3.859375 -30.078125 L 4.015625 -31.1875 L 4.125 -32.1875 L 3.8125 -34.9375 L 4.5 -36.375 L 6.03125 -36.953125 L 11.515625 -37.046875 L 12.890625 -36.421875 L 13.421875 -34.828125 L 13.53125 -32.25 L 13.421875 -31.078125 L 13.578125 -22.828125 L 13.421875 -21.71875 L 13.578125 -20.5625 L 13.421875 -19.078125 L 13.484375 -16.4375 L 13.375 -15.328125 L 13.484375 -14.265625 L 13.421875 -13.109375 L 13.578125 -12.109375 L 13.53125 -10.15625 L 13.84375 -8.984375 L 14.953125 -8.515625 L 24.265625 -8.40625 L 25.421875 -8.5625 L 26.265625 -8.03125 L 26.953125 -6.875 L 26.796875 -5.875 L 26.953125 -4.703125 L 26.859375 -3.75 L 26.796875 -2.703125 L 26.90625 -1.53125 L 26.328125 -0.578125 L 24.84375 -0.046875 L 6.125 0.046875 L 4.4375 -0.578125 Z M 3.96875 -1.53125 "/></g></g></g><g fill="#4040ff" fill-opacity="1"><g transform="translate(174.61873, 50.358455)"><g><path d="M 2.53125 -1.53125 L 2.53125 -5.609375 L 2.640625 -6.609375 L 3.28125 -7.609375 L 6.765625 -8.71875 L 7.296875 -9.890625 L 7.40625 -11.953125 L 7.1875 -14.21875 L 7.453125 -15.28125 L 7.234375 -17.34375 L 7.34375 -18.390625 L 7.40625 -20.5625 L 7.234375 -21.78125 L 7.1875 -22.671875 L 7.34375 -27.171875 L 6.65625 -28.125 L 3.4375 -29.234375 L 2.90625 -30.234375 L 2.90625 -31.234375 L 2.796875 -32.296875 L 2.796875 -33.453125 L 2.90625 -34.359375 L 2.90625 -35.359375 L 3.484375 -36.46875 L 4.65625 -37 L 6.71875 -36.890625 L 7.71875 -36.953125 L 10.9375 -36.890625 L 12.109375 -37 L 18.8125 -36.953125 L 20.515625 -36.46875 L 20.9375 -35.421875 L 21.03125 -34.359375 L 20.9375 -33.40625 L 20.9375 -30.28125 L 20.34375 -29.28125 L 19.34375 -28.703125 L 18.1875 -28.65625 L 17.171875 -28.0625 L 16.59375 -27.109375 L 16.59375 -24.890625 L 16.703125 -23.78125 L 16.59375 -22.734375 L 16.703125 -21.71875 L 16.59375 -20.09375 L 16.703125 -18.5 L 16.484375 -16.28125 L 16.703125 -14.171875 L 16.59375 -9.828125 L 17.171875 -8.78125 L 20.71875 -7.671875 L 21.453125 -6.765625 L 21.296875 -3.546875 L 21.40625 -2.59375 L 21.40625 -1.421875 L 20.828125 -0.46875 L 19.828125 0.046875 L 4.125 -0.046875 L 3.0625 -0.421875 Z M 2.53125 -1.53125 "/></g></g></g><g fill="#4040ff" fill-opacity="1"><g transform="translate(198.617489, 50.358455)"><g><path d="M 31.1875 -0.84375 L 30.5 -1.53125 L 29.859375 -2.328125 L 29.015625 -3.015625 L 28.328125 -3.859375 L 23.203125 -8.984375 L 22.359375 -9.671875 L 14.796875 -17.078125 L 14.109375 -17.234375 L 13.578125 -16.59375 L 13.796875 -15.484375 L 13.640625 -2.53125 L 13.796875 -1.484375 L 13.328125 -0.421875 L 12.265625 0.109375 L 11.046875 0 L 9.9375 0.15625 L 7.296875 0 L 5.5 0.109375 L 4.5 -0.46875 L 4.015625 -1.640625 L 4.015625 -2.640625 L 3.859375 -3.703125 L 4.015625 -5.703125 L 3.90625 -6.765625 L 3.96875 -8.9375 L 3.8125 -10.046875 L 3.8125 -11.046875 L 3.90625 -12.203125 L 3.90625 -13.21875 L 4.015625 -14.171875 L 3.8125 -21.71875 L 3.96875 -22.828125 L 3.90625 -23.9375 L 4.015625 -24.890625 L 3.859375 -27.0625 L 3.96875 -28.125 L 3.859375 -35.515625 L 4.546875 -36.53125 L 5.8125 -37.15625 L 7.234375 -36.734375 L 9.359375 -35.3125 L 12.203125 -32.40625 L 12.890625 -31.5 L 13.796875 -30.875 L 14.328125 -30.078125 L 15.328125 -29.390625 L 15.90625 -28.59375 L 17.546875 -27.21875 L 18.65625 -26.0625 L 19.234375 -25.3125 L 20.09375 -24.6875 L 21.9375 -22.78125 L 22.734375 -22.140625 L 25.0625 -19.765625 L 25.796875 -19.5625 L 26.0625 -20.40625 L 26 -22.515625 L 26.21875 -23.625 L 26.21875 -24.625 L 26 -25.75 L 26.0625 -35.359375 L 26.59375 -36.46875 L 27.859375 -37 L 28.90625 -36.953125 L 29.859375 -37.046875 L 30.96875 -36.890625 L 32.140625 -37 L 33.140625 -37 L 34.203125 -36.890625 L 35.359375 -36.375 L 36 -35.421875 L 35.890625 -32.671875 L 36 -31.078125 L 35.78125 -30.03125 L 35.78125 -27.90625 L 35.890625 -26.90625 L 35.734375 -24.796875 L 35.9375 -18.453125 L 35.84375 -17.28125 L 36.046875 -15.8125 L 35.78125 -1.421875 L 35.3125 -0.3125 L 34.09375 0.265625 L 32.71875 -0.15625 Z M 31.1875 -0.84375 "/></g></g></g><g fill="#4040ff" fill-opacity="1"><g transform="translate(238.474481, 50.358455)"><g><path d="M 3.8125 -1.53125 L 4.015625 -2.59375 L 4.0625 -3.640625 L 3.96875 -5.703125 L 3.96875 -6.765625 L 3.859375 -7.984375 L 4.015625 -8.9375 L 3.96875 -9.9375 L 4.0625 -11.09375 L 3.90625 -12.203125 L 4.015625 -14.328125 L 3.859375 -16.390625 L 4.015625 -17.5 L 4.015625 -26.953125 L 3.90625 -27.90625 L 4.015625 -29.015625 L 3.8125 -31.71875 L 4.015625 -33.25 L 3.90625 -35.359375 L 4.4375 -36.53125 L 5.96875 -36.890625 L 12.890625 -37.046875 L 13.84375 -36.953125 L 15.90625 -37 L 16.96875 -36.890625 L 19.296875 -37 L 20.34375 -36.84375 L 21.296875 -36.953125 L 25.53125 -36.890625 L 26.640625 -36.421875 L 27.171875 -35.359375 L 27.015625 -34.359375 L 26.953125 -33.203125 L 27.109375 -32.1875 L 27.21875 -30.03125 L 26.640625 -29.078125 L 25.53125 -28.484375 L 15.375 -28.4375 L 13.75 -27.96875 L 13.21875 -26.421875 L 13.328125 -24.796875 L 13.953125 -23.84375 L 14.859375 -23.265625 L 19.03125 -23.3125 L 20.25 -23.203125 L 21.359375 -23.203125 L 22.40625 -23.3125 L 24.53125 -23.265625 L 25.421875 -22.671875 L 25.90625 -21.671875 L 26 -20.609375 L 25.90625 -16.4375 L 25.375 -15.4375 L 24.3125 -14.859375 L 23.359375 -14.796875 L 22.25 -14.90625 L 20.828125 -14.796875 L 18.03125 -14.953125 L 16.96875 -14.859375 L 14.90625 -14.859375 L 13.953125 -14.265625 L 13.484375 -13.15625 L 13.421875 -10.578125 L 13.90625 -8.9375 L 15.015625 -8.296875 L 16.171875 -8.40625 L 17.34375 -8.296875 L 18.34375 -8.453125 L 25.3125 -8.359375 L 26.90625 -7.828125 L 27.59375 -6.765625 L 27.484375 -5.765625 L 27.546875 -2.484375 L 27.4375 -1.484375 L 26.953125 -0.46875 L 25.84375 0.046875 L 24.84375 0.15625 L 21.625 -0.046875 L 18.390625 0.109375 L 17.4375 -0.046875 L 5.5 0.046875 L 4.5 -0.53125 Z M 3.8125 -1.53125 "/></g></g></g></g></g></g><g clip-path="url(#9bdae30904)"><path fill="#4040ff" d="M 284.304688 61.113281 L 284.304688 14.382812 C 284.304688 6.863281 290.460938 0.707031 297.980469 0.707031 L 344.710938 0.707031 C 352.234375 0.707031 358.386719 6.863281 358.386719 14.382812 L 358.386719 61.113281 C 358.386719 68.636719 352.234375 74.789062 344.710938 74.789062 L 297.980469 74.789062 C 290.460938 74.789062 284.304688 68.636719 284.304688 61.113281 Z M 284.304688 61.113281 " fill-opacity="1" fill-rule="nonzero"/></g><path fill="#ffffff" d="M 302.628906 61.644531 L 340.152344 61.644531 L 340.152344 21.023438 L 332.605469 14.074219 L 302.628906 14.074219 Z M 340.914062 63.183594 L 301.855469 63.183594 C 301.433594 63.183594 301.09375 62.839844 301.09375 62.421875 L 301.09375 13.308594 C 301.09375 12.886719 301.433594 12.546875 301.855469 12.546875 L 332.890625 12.546875 C 333.085938 12.546875 333.265625 12.613281 333.414062 12.75 L 341.359375 20.066406 L 341.402344 20.101562 C 341.574219 20.25 341.675781 20.464844 341.675781 20.695312 L 341.675781 62.421875 C 341.675781 62.839844 341.335938 63.183594 340.914062 63.183594 Z M 340.914062 63.183594 " fill-opacity="1" fill-rule="evenodd"/><path fill="#ffffff" d="M 340.914062 21.414062 L 332.902344 21.414062 C 332.480469 21.414062 332.136719 21.070312 332.136719 20.648438 L 332.136719 13.320312 C 332.136719 12.898438 332.480469 12.558594 332.902344 12.558594 C 333.324219 12.558594 333.664062 12.898438 333.664062 13.320312 L 333.664062 19.886719 L 340.914062 19.886719 C 341.335938 19.886719 341.675781 20.226562 341.675781 20.648438 C 341.675781 21.058594 341.335938 21.414062 340.914062 21.414062 Z M 340.914062 21.414062 " fill-opacity="1" fill-rule="evenodd"/><path fill="#ffffff" d="M 307.964844 21.949219 L 328.136719 21.949219 L 328.136719 18.824219 L 307.964844 18.824219 Z M 328.914062 23.476562 L 307.199219 23.476562 C 306.777344 23.476562 306.4375 23.132812 306.4375 22.710938 L 306.4375 18.0625 C 306.4375 17.640625 306.777344 17.296875 307.199219 17.296875 L 328.914062 17.296875 C 329.335938 17.296875 329.675781 17.640625 329.675781 18.0625 L 329.675781 22.710938 C 329.675781 23.132812 329.335938 23.476562 328.914062 23.476562 Z M 328.914062 23.476562 " fill-opacity="1" fill-rule="evenodd"/><path fill="#ffffff" d="M 334.097656 28.046875 L 307.132812 28.046875 C 306.710938 28.046875 306.367188 27.703125 306.367188 27.28125 C 306.367188 26.859375 306.710938 26.519531 307.132812 26.519531 L 334.097656 26.519531 C 334.519531 26.519531 334.863281 26.859375 334.863281 27.28125 C 334.875 27.703125 334.519531 28.046875 334.097656 28.046875 Z M 334.097656 28.046875 " fill-opacity="1" fill-rule="evenodd"/><path fill="#ffffff" d="M 334.097656 33.472656 L 307.132812 33.472656 C 306.710938 33.472656 306.367188 33.128906 306.367188 32.707031 C 306.367188 32.285156 306.710938 31.945312 307.132812 31.945312 L 334.097656 31.945312 C 334.519531 31.945312 334.863281 32.285156 334.863281 32.707031 C 334.875 33.128906 334.519531 33.472656 334.097656 33.472656 Z M 334.097656 33.472656 " fill-opacity="1" fill-rule="evenodd"/><path fill="#ffffff" d="M 334.097656 39.101562 L 307.132812 39.101562 C 306.710938 39.101562 306.367188 38.757812 306.367188 38.335938 C 306.367188 37.914062 306.710938 37.574219 307.132812 37.574219 L 334.097656 37.574219 C 334.519531 37.574219 334.863281 37.914062 334.863281 38.335938 C 334.875 38.757812 334.519531 39.101562 334.097656 39.101562 Z M 334.097656 39.101562 " fill-opacity="1" fill-rule="evenodd"/><path fill="#ffffff" d="M 308.570312 56.949219 L 333.140625 56.949219 L 333.140625 43.992188 L 308.570312 43.992188 Z M 333.917969 58.476562 L 307.804688 58.476562 C 307.382812 58.476562 307.042969 58.136719 307.042969 57.714844 L 307.042969 43.226562 C 307.042969 42.804688 307.382812 42.464844 307.804688 42.464844 L 333.917969 42.464844 C 334.335938 42.464844 334.679688 42.804688 334.679688 43.226562 L 334.679688 57.714844 C 334.691406 58.132812 334.335938 58.476562 333.917969 58.476562 Z M 333.917969 58.476562 " fill-opacity="1" fill-rule="evenodd"/><path fill="#ffffff" d="M 313.117188 58.476562 C 312.695312 58.476562 312.351562 58.136719 312.351562 57.714844 L 312.351562 43.226562 C 312.351562 42.804688 312.695312 42.464844 313.117188 42.464844 C 313.539062 42.464844 313.878906 42.804688 313.878906 43.226562 L 313.878906 57.714844 C 313.890625 58.132812 313.539062 58.476562 313.117188 58.476562 Z M 313.117188 58.476562 " fill-opacity="1" fill-rule="evenodd"/><path fill="#ffffff" d="M 318.300781 58.476562 C 317.878906 58.476562 317.539062 58.136719 317.539062 57.714844 L 317.539062 43.226562 C 317.539062 42.804688 317.878906 42.464844 318.300781 42.464844 C 318.722656 42.464844 319.066406 42.804688 319.066406 43.226562 L 319.066406 57.714844 C 319.078125 58.132812 318.734375 58.476562 318.300781 58.476562 Z M 318.300781 58.476562 " fill-opacity="1" fill-rule="evenodd"/><path fill="#ffffff" d="M 323.316406 58.476562 C 322.894531 58.476562 322.554688 58.136719 322.554688 57.714844 L 322.554688 43.226562 C 322.554688 42.804688 322.894531 42.464844 323.316406 42.464844 C 323.738281 42.464844 324.082031 42.804688 324.082031 43.226562 L 324.082031 57.714844 C 324.082031 58.132812 323.738281 58.476562 323.316406 58.476562 Z M 323.316406 58.476562 " fill-opacity="1" fill-rule="evenodd"/><path fill="#ffffff" d="M 328.515625 58.476562 C 328.09375 58.476562 327.75 58.136719 327.75 57.714844 L 327.75 43.226562 C 327.75 42.804688 328.09375 42.464844 328.515625 42.464844 C 328.933594 42.464844 329.277344 42.804688 329.277344 43.226562 L 329.277344 57.714844 C 329.277344 58.132812 328.933594 58.476562 328.515625 58.476562 Z M 328.515625 58.476562 " fill-opacity="1" fill-rule="evenodd"/><path fill="#ffffff" d="M 333.917969 48.847656 L 307.804688 48.847656 C 307.382812 48.847656 307.042969 48.503906 307.042969 48.082031 C 307.042969 47.660156 307.382812 47.320312 307.804688 47.320312 L 333.917969 47.320312 C 334.335938 47.320312 334.679688 47.660156 334.679688 48.082031 C 334.691406 48.503906 334.335938 48.847656 333.917969 48.847656 Z M 333.917969 48.847656 " fill-opacity="1" fill-rule="evenodd"/><path fill="#ffffff" d="M 333.917969 53.882812 L 307.804688 53.882812 C 307.382812 53.882812 307.042969 53.542969 307.042969 53.121094 C 307.042969 52.699219 307.382812 52.355469 307.804688 52.355469 L 333.917969 52.355469 C 334.335938 52.355469 334.679688 52.699219 334.679688 53.121094 C 334.691406 53.542969 334.335938 53.882812 333.917969 53.882812 Z M 333.917969 53.882812 " fill-opacity="1" fill-rule="evenodd"/><g clip-path="url(#59ddce1742)"><g transform="matrix(1, 0, 0, 1, 370, 6)"><g clip-path="url(#078cfde756)"><g fill="#4040ff" fill-opacity="1"><g transform="translate(1.026031, 49.548162)"><g><path d="M 3.8125 -1.53125 L 4.015625 -2.59375 L 4.0625 -3.640625 L 3.96875 -5.703125 L 3.96875 -6.765625 L 3.859375 -7.984375 L 4.015625 -8.9375 L 3.96875 -9.9375 L 4.0625 -11.09375 L 3.90625 -12.203125 L 4.015625 -14.328125 L 3.859375 -16.390625 L 4.015625 -17.5 L 4.015625 -26.953125 L 3.90625 -27.90625 L 4.015625 -29.015625 L 3.8125 -31.71875 L 4.015625 -33.25 L 3.90625 -35.359375 L 4.4375 -36.53125 L 5.96875 -36.890625 L 12.890625 -37.046875 L 13.84375 -36.953125 L 15.90625 -37 L 16.96875 -36.890625 L 19.296875 -37 L 20.34375 -36.84375 L 21.296875 -36.953125 L 25.53125 -36.890625 L 26.640625 -36.421875 L 27.171875 -35.359375 L 27.015625 -34.359375 L 26.953125 -33.203125 L 27.109375 -32.1875 L 27.21875 -30.03125 L 26.640625 -29.078125 L 25.53125 -28.484375 L 15.375 -28.4375 L 13.75 -27.96875 L 13.21875 -26.421875 L 13.328125 -24.796875 L 13.953125 -23.84375 L 14.859375 -23.265625 L 19.03125 -23.3125 L 20.25 -23.203125 L 21.359375 -23.203125 L 22.40625 -23.3125 L 24.53125 -23.265625 L 25.421875 -22.671875 L 25.90625 -21.671875 L 26 -20.609375 L 25.90625 -16.4375 L 25.375 -15.4375 L 24.3125 -14.859375 L 23.359375 -14.796875 L 22.25 -14.90625 L 20.828125 -14.796875 L 18.03125 -14.953125 L 16.96875 -14.859375 L 14.90625 -14.859375 L 13.953125 -14.265625 L 13.484375 -13.15625 L 13.421875 -10.578125 L 13.90625 -8.9375 L 15.015625 -8.296875 L 16.171875 -8.40625 L 17.34375 -8.296875 L 18.34375 -8.453125 L 25.3125 -8.359375 L 26.90625 -7.828125 L 27.59375 -6.765625 L 27.484375 -5.765625 L 27.546875 -2.484375 L 27.4375 -1.484375 L 26.953125 -0.46875 L 25.84375 0.046875 L 24.84375 0.15625 L 21.625 -0.046875 L 18.390625 0.109375 L 17.4375 -0.046875 L 5.5 0.046875 L 4.5 -0.53125 Z M 3.8125 -1.53125 "/></g></g></g><g fill="#4040ff" fill-opacity="1"><g transform="translate(31.315223, 49.548162)"><g><path d="M 0.6875 -1.484375 L 1.53125 -3.125 L 4.703125 -7.765625 L 5.125 -8.671875 L 5.96875 -9.671875 L 6.390625 -10.40625 L 7.765625 -12.265625 L 8.09375 -13.0625 L 9.890625 -15.640625 L 10.3125 -16.546875 L 11.046875 -17.5 L 11.578125 -18.234375 L 11.84375 -19.5 L 11.46875 -20.78125 L 10.84375 -21.671875 L 10.40625 -22.734375 L 9.890625 -23.625 L 9.203125 -24.375 L 8.03125 -26.265625 L 7.40625 -27.109375 L 5.1875 -30.71875 L 4.4375 -31.453125 L 3.90625 -32.34375 L 3.28125 -33.25 L 1.953125 -35.3125 L 2.109375 -36.625 L 3.4375 -37 L 9.984375 -36.953125 L 11.359375 -36.53125 L 12.265625 -35.625 L 12.890625 -34.734375 L 13.328125 -33.828125 L 14 -33.03125 L 16.546875 -28.65625 L 17.28125 -27.640625 L 17.96875 -27.703125 L 18.453125 -28.546875 L 19.078125 -29.4375 L 20.671875 -32.25 L 21.359375 -33.09375 L 22.9375 -35.578125 L 23.9375 -36.53125 L 25.84375 -36.953125 L 26.859375 -37 L 28.59375 -36.890625 L 29.703125 -37 L 31.71875 -36.84375 L 32.765625 -36.46875 L 33.140625 -35.421875 L 26.109375 -24.421875 L 25.3125 -23.578125 L 24.6875 -22.671875 L 24.265625 -21.78125 L 23.6875 -20.875 L 23.265625 -19.609375 L 23.421875 -18.34375 L 24.15625 -17.4375 L 25.21875 -15.640625 L 25.90625 -14.90625 L 26.953125 -13.0625 L 27.484375 -12.265625 L 28.015625 -11.265625 L 28.75 -10.46875 L 29.390625 -9.5625 L 29.8125 -8.609375 L 30.5 -7.875 L 30.96875 -7.03125 L 31.65625 -6.1875 L 33.890625 -2.75 L 34.359375 -1.421875 L 34.140625 -0.3125 L 33.296875 0 L 29.015625 0.109375 L 28.125 0 L 26.0625 0.046875 L 24.890625 -0.3125 L 23.84375 -1.21875 L 20.03125 -7.5625 L 19.71875 -8.40625 L 18.96875 -9.296875 L 18.609375 -10.3125 L 18.03125 -11.265625 L 17.34375 -11.15625 L 15.015625 -7.5625 L 12.640625 -3.0625 L 11.46875 -1.265625 L 10.359375 -0.421875 L 9.03125 0 L 5.078125 0 L 4.015625 0.109375 L 3.125 0.046875 L 2.0625 0.109375 L 1 -0.3125 Z M 0.6875 -1.484375 "/></g></g></g><g fill="#4040ff" fill-opacity="1"><g transform="translate(66.361877, 49.548162)"><g><path d="M 10.15625 -1.640625 L 10.09375 -5.765625 L 10.203125 -6.8125 L 10.046875 -10.046875 L 10.09375 -11.15625 L 10.046875 -12.203125 L 10.25 -13.796875 L 10.09375 -15.328125 L 10.09375 -17.4375 L 10.203125 -18.5 L 10.09375 -19.5 L 10.25 -21.140625 L 10.09375 -26.953125 L 9.5625 -27.96875 L 8.609375 -28.546875 L 3.90625 -28.59375 L 2.53125 -28.4375 L 1.484375 -28.96875 L 0.90625 -30.125 L 0.953125 -35.421875 L 1.484375 -36.46875 L 2.640625 -37 L 18.390625 -36.890625 L 19.609375 -37.046875 L 20.671875 -37.046875 L 21.71875 -36.953125 L 22.78125 -36.953125 L 23.9375 -37.109375 L 24.953125 -37.109375 L 25.796875 -37 L 27.0625 -37.109375 L 28.125 -36.578125 L 28.65625 -35.515625 L 28.546875 -31.1875 L 28.65625 -30.078125 L 28.125 -29.015625 L 26.90625 -28.546875 L 24 -28.59375 L 23.046875 -28.484375 L 21.984375 -28.546875 L 21.09375 -28.484375 L 19.921875 -28.015625 L 19.5 -27.0625 L 19.609375 -25.90625 L 19.453125 -24.84375 L 19.65625 -14.328125 L 19.5 -12.109375 L 19.609375 -11.15625 L 19.5 -7.921875 L 19.34375 -6.8125 L 19.5 -5.921875 L 19.5625 -3.8125 L 19.453125 -2.59375 L 19.5 -1.578125 L 19.078125 -0.53125 L 18.03125 -0.109375 L 14.75 -0.109375 L 13.75 0 L 12.6875 -0.109375 L 11.6875 0 L 10.578125 -0.53125 Z M 10.15625 -1.640625 "/></g></g></g><g fill="#4040ff" fill-opacity="1"><g transform="translate(95.38237, 49.548162)"><g><path d="M 4.0625 -1.6875 L 3.90625 -5.8125 L 4.015625 -6.921875 L 3.8125 -9.984375 L 3.96875 -12.15625 L 3.8125 -13.328125 L 3.859375 -15.328125 L 3.96875 -16.4375 L 3.96875 -19.078125 L 3.8125 -20.609375 L 3.96875 -35.421875 L 4.390625 -36.53125 L 5.390625 -37 L 6.546875 -36.953125 L 7.5625 -37.109375 L 9.71875 -36.890625 L 10.734375 -37.046875 L 13.90625 -36.953125 L 14.796875 -37.046875 L 15.96875 -36.953125 L 17.015625 -37.046875 L 18.1875 -37 L 19.71875 -37.046875 L 21.03125 -36.953125 L 25.421875 -36.046875 L 27.28125 -35.09375 L 29.921875 -33.09375 L 30.390625 -32.296875 L 31.140625 -31.5 L 32.5625 -28.59375 L 32.828125 -27.546875 L 32.984375 -26.53125 L 33.25 -25.53125 L 33.203125 -21.359375 L 32.609375 -19.34375 L 32.25 -18.453125 L 31.65625 -17.5 L 31.296875 -16.484375 L 30.65625 -15.59375 L 29.171875 -14.171875 L 28.59375 -13.0625 L 28.75 -11.78125 L 30.34375 -9.03125 L 31.03125 -8.1875 L 31.5625 -7.234375 L 32.1875 -6.296875 L 32.671875 -5.390625 L 34.359375 -2.796875 L 35.046875 -1.484375 L 34.828125 -0.375 L 33.71875 -0.109375 L 32.5625 0 L 30.453125 0 L 29.390625 -0.109375 L 28.234375 0 L 26.328125 -0.109375 L 25 -0.421875 L 23.9375 -1.375 L 23.3125 -2.21875 L 22.828125 -3.125 L 22.140625 -4.125 L 20.671875 -6.765625 L 20.296875 -7.765625 L 18.921875 -9.625 L 18.078125 -10.515625 L 16.75 -10.9375 L 15.8125 -10.890625 L 14.859375 -10.890625 L 13.796875 -10.359375 L 13.328125 -9.296875 L 13.421875 -6.03125 L 13.265625 -3.75 L 13.484375 -2.640625 L 13.375 -1.53125 L 13 -0.53125 L 11.359375 0 L 9.78125 0 L 8.671875 -0.109375 L 6.5 0.046875 L 5.5 0 L 4.4375 -0.53125 Z M 14.859375 -19.453125 L 16.015625 -19.453125 L 17.078125 -19.296875 L 21.203125 -19.65625 L 21.984375 -20.03125 L 22.625 -20.671875 L 23.203125 -21.5625 L 23.625 -22.625 L 23.78125 -24.046875 L 23.6875 -25.578125 L 23.3125 -26.421875 L 22.78125 -27.21875 L 21.140625 -28.234375 L 18.71875 -28.546875 L 15.8125 -28.59375 L 14.953125 -28.546875 L 13.90625 -28.015625 L 13.265625 -26.953125 L 13.421875 -21.03125 L 13.953125 -19.921875 Z M 14.859375 -19.453125 "/></g></g></g><g fill="#4040ff" fill-opacity="1"><g transform="translate(132.014849, 49.548162)"><g><path d="M 0.6875 -1.421875 L 1.328125 -3.640625 L 1.796875 -4.703125 L 2.4375 -5.546875 L 3.96875 -9.40625 L 5.4375 -12.15625 L 5.8125 -13.21875 L 6.296875 -14.0625 L 6.609375 -15.171875 L 7.34375 -16.546875 L 7.71875 -17.546875 L 8.515625 -18.921875 L 9.359375 -20.828125 L 9.9375 -21.78125 L 10.203125 -22.671875 L 13.15625 -29.34375 L 13.75 -30.28125 L 16.015625 -35.046875 L 16.328125 -36 L 17.34375 -36.953125 L 19.03125 -37.484375 L 20.828125 -37 L 21.78125 -36 L 22.09375 -35 L 22.578125 -34.203125 L 23.421875 -32.1875 L 24.46875 -30.234375 L 25.265625 -28.390625 L 25.53125 -27.546875 L 26.484375 -25.53125 L 26.796875 -24.53125 L 27.859375 -22.671875 L 28.125 -21.671875 L 28.65625 -20.78125 L 29.078125 -19.875 L 29.65625 -18.921875 L 29.96875 -17.859375 L 30.453125 -17.078125 L 30.8125 -16.015625 L 31.296875 -15.125 L 31.71875 -14.0625 L 32.296875 -13.21875 L 33.03125 -11.265625 L 33.5625 -10.359375 L 33.9375 -9.359375 L 34.828125 -7.453125 L 35.15625 -6.453125 L 35.6875 -5.65625 L 36 -4.59375 L 36.6875 -3.703125 L 37.046875 -2.75 L 37.375 -1.421875 L 37.15625 -0.3125 L 36.203125 0 L 32.9375 0.109375 L 31.078125 -0.046875 L 30.125 0.046875 L 28.75 -0.46875 L 27.859375 -1.328125 L 27.28125 -2.265625 L 27.015625 -3.21875 L 25.90625 -4.0625 L 24.15625 -4.65625 L 21.671875 -4.546875 L 20.5625 -4.65625 L 19.609375 -4.65625 L 18.390625 -4.5 L 17.28125 -4.65625 L 14.328125 -4.59375 L 13.265625 -4.703125 L 12 -4.171875 L 11.09375 -3.171875 L 10.203125 -1.375 L 9.25 -0.421875 L 8.03125 0.109375 L 6.65625 -0.046875 L 2.015625 -0.046875 L 0.953125 -0.3125 Z M 17.015625 -13.0625 L 21.140625 -13.109375 L 22.046875 -13.53125 L 22.140625 -14.484375 L 21.78125 -15.4375 L 21.25 -16.484375 L 21.03125 -17.34375 L 20.453125 -18.234375 L 19.765625 -20.296875 L 19.140625 -20.71875 L 18.453125 -20.1875 L 17.96875 -19.34375 L 15.859375 -14.53125 L 16.015625 -13.484375 Z M 17.015625 -13.0625 "/></g></g></g><g fill="#4040ff" fill-opacity="1"><g transform="translate(169.493036, 49.548162)"><g><path d="M 19.453125 0.53125 L 18.453125 0.53125 L 17.5 0.3125 L 16.390625 0.21875 L 15.28125 -0.15625 L 14.484375 -0.375 L 13.421875 -0.734375 L 9.828125 -2.703125 L 9.03125 -3.328125 L 8.140625 -3.90625 L 6.234375 -5.765625 L 4.125 -8.828125 L 3.75 -9.71875 L 3.21875 -10.671875 L 3.0625 -11.625 L 2.640625 -12.640625 L 2.109375 -14.6875 L 2.109375 -16.8125 L 1.90625 -18.5 L 2.859375 -25.109375 L 5.28125 -29.859375 L 5.921875 -30.765625 L 7.34375 -32.078125 L 7.984375 -32.9375 L 11.6875 -35.3125 L 12.640625 -35.6875 L 13.421875 -36.15625 L 14.4375 -36.53125 L 16.484375 -36.953125 L 17.5 -37.265625 L 18.390625 -37.375 L 23.203125 -37.375 L 25.84375 -37 L 27.90625 -36.421875 L 30.921875 -35.046875 L 32.078125 -34.25 L 34.828125 -31.765625 L 36.796875 -29.078125 L 37.640625 -27.0625 L 37.796875 -26.109375 L 38.21875 -25.0625 L 37.90625 -23.9375 L 37.046875 -23.46875 L 36 -23.359375 L 30.65625 -23.46875 L 29.5 -23.9375 L 28.546875 -24.953125 L 28.0625 -25.84375 L 27.28125 -26.6875 L 25.75 -27.96875 L 24.625 -28.328125 L 22.625 -28.703125 L 19.34375 -28.8125 L 17.5 -28.28125 L 16.484375 -27.859375 L 14.75 -26.59375 L 13.421875 -24.953125 L 12.53125 -23.046875 L 12.203125 -22.09375 L 12.15625 -21.03125 L 11.78125 -20.09375 L 11.734375 -18.390625 L 11.890625 -15.90625 L 12.53125 -13.84375 L 12.953125 -12.953125 L 14.90625 -10.40625 L 15.59375 -9.671875 L 16.59375 -9.203125 L 19.453125 -8.140625 L 22.40625 -8.09375 L 23.515625 -8.1875 L 24.578125 -8.515625 L 26.375 -9.40625 L 28.390625 -11.578125 L 28.8125 -12.46875 L 29.859375 -13.484375 L 31.03125 -14 L 36.6875 -13.953125 L 38 -13.375 L 38.328125 -12.421875 L 38.171875 -11.421875 L 37.796875 -10.359375 L 37.53125 -9.359375 L 37.046875 -8.40625 L 35.46875 -5.65625 L 34.5625 -4.96875 L 33.984375 -4.0625 L 33.296875 -3.390625 L 32.40625 -2.75 L 31.453125 -2.171875 L 30.65625 -1.640625 L 27.75 -0.375 L 22.625 0.6875 Z M 19.453125 0.53125 "/></g></g></g><g fill="#4040ff" fill-opacity="1"><g transform="translate(209.297122, 49.548162)"><g><path d="M 10.15625 -1.640625 L 10.09375 -5.765625 L 10.203125 -6.8125 L 10.046875 -10.046875 L 10.09375 -11.15625 L 10.046875 -12.203125 L 10.25 -13.796875 L 10.09375 -15.328125 L 10.09375 -17.4375 L 10.203125 -18.5 L 10.09375 -19.5 L 10.25 -21.140625 L 10.09375 -26.953125 L 9.5625 -27.96875 L 8.609375 -28.546875 L 3.90625 -28.59375 L 2.53125 -28.4375 L 1.484375 -28.96875 L 0.90625 -30.125 L 0.953125 -35.421875 L 1.484375 -36.46875 L 2.640625 -37 L 18.390625 -36.890625 L 19.609375 -37.046875 L 20.671875 -37.046875 L 21.71875 -36.953125 L 22.78125 -36.953125 L 23.9375 -37.109375 L 24.953125 -37.109375 L 25.796875 -37 L 27.0625 -37.109375 L 28.125 -36.578125 L 28.65625 -35.515625 L 28.546875 -31.1875 L 28.65625 -30.078125 L 28.125 -29.015625 L 26.90625 -28.546875 L 24 -28.59375 L 23.046875 -28.484375 L 21.984375 -28.546875 L 21.09375 -28.484375 L 19.921875 -28.015625 L 19.5 -27.0625 L 19.609375 -25.90625 L 19.453125 -24.84375 L 19.65625 -14.328125 L 19.5 -12.109375 L 19.609375 -11.15625 L 19.5 -7.921875 L 19.34375 -6.8125 L 19.5 -5.921875 L 19.5625 -3.8125 L 19.453125 -2.59375 L 19.5 -1.578125 L 19.078125 -0.53125 L 18.03125 -0.109375 L 14.75 -0.109375 L 13.75 0 L 12.6875 -0.109375 L 11.6875 0 L 10.578125 -0.53125 Z M 10.15625 -1.640625 "/></g></g></g><g fill="#4040ff" fill-opacity="1"><g transform="translate(237.154593, 49.548162)"><g><path d="M 19.765625 0.640625 L 18.65625 0.53125 L 16.75 0.109375 L 15.59375 0 L 14.0625 -0.53125 L 9.9375 -2.640625 L 8.1875 -4.015625 L 7.609375 -4.703125 L 6.8125 -5.4375 L 6.125 -6.296875 L 5.5 -6.921875 L 3.0625 -11.734375 L 2.59375 -13.75 L 2.484375 -14.75 L 2.21875 -15.703125 L 2.0625 -16.8125 L 2.21875 -21.09375 L 3.125 -25.15625 L 3.90625 -27.171875 L 5.546875 -29.96875 L 8.140625 -32.984375 L 9.9375 -34.3125 L 10.890625 -34.78125 L 11.6875 -35.359375 L 15.640625 -36.84375 L 21.25 -37.640625 L 22.671875 -37.578125 L 25.75 -37.046875 L 29.8125 -35.78125 L 30.609375 -35.203125 L 32.1875 -34.515625 L 33.40625 -33.671875 L 34.9375 -32.34375 L 36.421875 -30.71875 L 37.578125 -29.125 L 38.59375 -27.171875 L 39.90625 -23.203125 L 40.28125 -21.03125 L 40.4375 -18.390625 L 40.21875 -16.859375 L 40.171875 -15.75 L 39.90625 -14.6875 L 39.859375 -13.75 L 39.4375 -11.734375 L 38.640625 -9.71875 L 36.3125 -6.1875 L 35.578125 -5.4375 L 34.890625 -4.5 L 33.40625 -3.21875 L 32.40625 -2.75 L 31.609375 -2.109375 L 29.859375 -1.15625 L 25.90625 0.15625 L 22.734375 0.578125 Z M 22.734375 -8.71875 L 23.78125 -8.9375 L 24.578125 -9.296875 L 25.53125 -9.5625 L 28.0625 -11.3125 L 28.8125 -12.15625 L 29.125 -12.953125 L 29.703125 -13.90625 L 30.078125 -14.859375 L 30.5 -16.8125 L 30.609375 -20.03125 L 30.453125 -20.984375 L 29.96875 -21.984375 L 29.34375 -24 L 27.28125 -26.171875 L 25.640625 -27.328125 L 24.6875 -27.75 L 23.734375 -27.96875 L 21.203125 -28.28125 L 19.71875 -28.171875 L 17.65625 -27.640625 L 16.96875 -27.375 L 14.328125 -25.578125 L 13.0625 -23.890625 L 12.734375 -22.9375 L 12.3125 -21.984375 L 12.15625 -20.984375 L 11.890625 -20.03125 L 11.890625 -16.8125 L 12.3125 -14.859375 L 12.796875 -13.90625 L 13.0625 -13.0625 L 13.796875 -12.046875 L 14.484375 -11.3125 L 15.90625 -10.15625 L 16.75 -9.671875 L 18.65625 -8.875 L 19.828125 -8.71875 Z M 22.734375 -8.71875 "/></g></g></g><g fill="#4040ff" fill-opacity="1"><g transform="translate(279.5489, 49.548162)"><g><path d="M 4.0625 -1.6875 L 3.90625 -5.8125 L 4.015625 -6.921875 L 3.8125 -9.984375 L 3.96875 -12.15625 L 3.8125 -13.328125 L 3.859375 -15.328125 L 3.96875 -16.4375 L 3.96875 -19.078125 L 3.8125 -20.609375 L 3.96875 -35.421875 L 4.390625 -36.53125 L 5.390625 -37 L 6.546875 -36.953125 L 7.5625 -37.109375 L 9.71875 -36.890625 L 10.734375 -37.046875 L 13.90625 -36.953125 L 14.796875 -37.046875 L 15.96875 -36.953125 L 17.015625 -37.046875 L 18.1875 -37 L 19.71875 -37.046875 L 21.03125 -36.953125 L 25.421875 -36.046875 L 27.28125 -35.09375 L 29.921875 -33.09375 L 30.390625 -32.296875 L 31.140625 -31.5 L 32.5625 -28.59375 L 32.828125 -27.546875 L 32.984375 -26.53125 L 33.25 -25.53125 L 33.203125 -21.359375 L 32.609375 -19.34375 L 32.25 -18.453125 L 31.65625 -17.5 L 31.296875 -16.484375 L 30.65625 -15.59375 L 29.171875 -14.171875 L 28.59375 -13.0625 L 28.75 -11.78125 L 30.34375 -9.03125 L 31.03125 -8.1875 L 31.5625 -7.234375 L 32.1875 -6.296875 L 32.671875 -5.390625 L 34.359375 -2.796875 L 35.046875 -1.484375 L 34.828125 -0.375 L 33.71875 -0.109375 L 32.5625 0 L 30.453125 0 L 29.390625 -0.109375 L 28.234375 0 L 26.328125 -0.109375 L 25 -0.421875 L 23.9375 -1.375 L 23.3125 -2.21875 L 22.828125 -3.125 L 22.140625 -4.125 L 20.671875 -6.765625 L 20.296875 -7.765625 L 18.921875 -9.625 L 18.078125 -10.515625 L 16.75 -10.9375 L 15.8125 -10.890625 L 14.859375 -10.890625 L 13.796875 -10.359375 L 13.328125 -9.296875 L 13.421875 -6.03125 L 13.265625 -3.75 L 13.484375 -2.640625 L 13.375 -1.53125 L 13 -0.53125 L 11.359375 0 L 9.78125 0 L 8.671875 -0.109375 L 6.5 0.046875 L 5.5 0 L 4.4375 -0.53125 Z M 14.859375 -19.453125 L 16.015625 -19.453125 L 17.078125 -19.296875 L 21.203125 -19.65625 L 21.984375 -20.03125 L 22.625 -20.671875 L 23.203125 -21.5625 L 23.625 -22.625 L 23.78125 -24.046875 L 23.6875 -25.578125 L 23.3125 -26.421875 L 22.78125 -27.21875 L 21.140625 -28.234375 L 18.71875 -28.546875 L 15.8125 -28.59375 L 14.953125 -28.546875 L 13.90625 -28.015625 L 13.265625 -26.953125 L 13.421875 -21.03125 L 13.953125 -19.921875 Z M 14.859375 -19.453125 "/></g></g></g></g></g></g></g></g></svg>