<svg xmlns="http://www.w3.org/2000/svg" xmlns:xlink="http://www.w3.org/1999/xlink" width="115" zoomAndPan="magnify" viewBox="0 0 86.25 86.249996" height="115" preserveAspectRatio="xMidYMid meet" version="1.0"><defs><clipPath id="34dcfc4efe"><path d="M 2.625 2.625 L 82.925781 2.625 L 82.925781 82.925781 L 2.625 82.925781 Z M 2.625 2.625 " clip-rule="nonzero"/></clipPath><clipPath id="fbcb93ea45"><path d="M 20.261719 6.429688 L 27.027344 6.429688 L 27.027344 13.941406 L 20.261719 13.941406 Z M 20.261719 6.429688 " clip-rule="nonzero"/></clipPath><clipPath id="ca53641183"><path d="M 0.261719 0.429688 L 7.027344 0.429688 L 7.027344 7.941406 L 0.261719 7.941406 Z M 0.261719 0.429688 " clip-rule="nonzero"/></clipPath><clipPath id="5168ccf20d"><rect x="0" width="8" y="0" height="8"/></clipPath></defs><g clip-path="url(#34dcfc4efe)"><path fill="#4040ff" d="M 2.625 68.0625 L 2.625 17.441406 C 2.625 9.292969 9.292969 2.625 17.441406 2.625 L 68.0625 2.625 C 76.214844 2.625 82.878906 9.292969 82.878906 17.441406 L 82.878906 68.0625 C 82.878906 76.214844 76.214844 82.878906 68.0625 82.878906 L 17.441406 82.878906 C 9.292969 82.878906 2.625 76.214844 2.625 68.0625 Z M 2.625 68.0625 " fill-opacity="1" fill-rule="nonzero"/></g><path fill="#ffffff" d="M 22.476562 68.640625 L 63.125 68.640625 L 63.125 24.636719 L 54.949219 17.105469 L 22.476562 17.105469 Z M 63.949219 70.308594 L 21.636719 70.308594 C 21.179688 70.308594 20.8125 69.9375 20.8125 69.480469 L 20.8125 16.277344 C 20.8125 15.820312 21.179688 15.449219 21.636719 15.449219 L 55.257812 15.449219 C 55.46875 15.449219 55.667969 15.523438 55.828125 15.671875 L 64.433594 23.597656 L 64.480469 23.636719 C 64.667969 23.796875 64.777344 24.03125 64.777344 24.277344 L 64.777344 69.480469 C 64.777344 69.9375 64.40625 70.308594 63.949219 70.308594 Z M 63.949219 70.308594 " fill-opacity="1" fill-rule="evenodd"/><path fill="#ffffff" d="M 63.949219 25.054688 L 55.269531 25.054688 C 54.8125 25.054688 54.445312 24.683594 54.445312 24.226562 L 54.445312 16.289062 C 54.445312 15.832031 54.8125 15.460938 55.269531 15.460938 C 55.726562 15.460938 56.097656 15.832031 56.097656 16.289062 L 56.097656 23.402344 L 63.949219 23.402344 C 64.40625 23.402344 64.777344 23.769531 64.777344 24.226562 C 64.777344 24.671875 64.40625 25.054688 63.949219 25.054688 Z M 63.949219 25.054688 " fill-opacity="1" fill-rule="evenodd"/><path fill="#ffffff" d="M 28.257812 25.636719 L 50.109375 25.636719 L 50.109375 22.253906 L 28.257812 22.253906 Z M 50.949219 27.289062 L 27.429688 27.289062 C 26.972656 27.289062 26.601562 26.917969 26.601562 26.464844 L 26.601562 21.425781 C 26.601562 20.96875 26.972656 20.597656 27.429688 20.597656 L 50.949219 20.597656 C 51.40625 20.597656 51.777344 20.96875 51.777344 21.425781 L 51.777344 26.464844 C 51.777344 26.917969 51.40625 27.289062 50.949219 27.289062 Z M 50.949219 27.289062 " fill-opacity="1" fill-rule="evenodd"/><path fill="#ffffff" d="M 56.566406 32.242188 L 27.355469 32.242188 C 26.898438 32.242188 26.527344 31.871094 26.527344 31.414062 C 26.527344 30.957031 26.898438 30.585938 27.355469 30.585938 L 56.566406 30.585938 C 57.023438 30.585938 57.394531 30.957031 57.394531 31.414062 C 57.40625 31.871094 57.023438 32.242188 56.566406 32.242188 Z M 56.566406 32.242188 " fill-opacity="1" fill-rule="evenodd"/><path fill="#ffffff" d="M 56.566406 38.117188 L 27.355469 38.117188 C 26.898438 38.117188 26.527344 37.75 26.527344 37.292969 C 26.527344 36.835938 26.898438 36.464844 27.355469 36.464844 L 56.566406 36.464844 C 57.023438 36.464844 57.394531 36.835938 57.394531 37.292969 C 57.40625 37.75 57.023438 38.117188 56.566406 38.117188 Z M 56.566406 38.117188 " fill-opacity="1" fill-rule="evenodd"/><path fill="#ffffff" d="M 56.566406 44.21875 L 27.355469 44.21875 C 26.898438 44.21875 26.527344 43.847656 26.527344 43.390625 C 26.527344 42.933594 26.898438 42.5625 27.355469 42.5625 L 56.566406 42.5625 C 57.023438 42.5625 57.394531 42.933594 57.394531 43.390625 C 57.40625 43.847656 57.023438 44.21875 56.566406 44.21875 Z M 56.566406 44.21875 " fill-opacity="1" fill-rule="evenodd"/><path fill="#ffffff" d="M 28.910156 63.554688 L 55.53125 63.554688 L 55.53125 49.515625 L 28.910156 49.515625 Z M 56.371094 65.207031 L 28.082031 65.207031 C 27.625 65.207031 27.257812 64.835938 27.257812 64.378906 L 27.257812 48.6875 C 27.257812 48.230469 27.625 47.859375 28.082031 47.859375 L 56.371094 47.859375 C 56.828125 47.859375 57.199219 48.230469 57.199219 48.6875 L 57.199219 64.378906 C 57.210938 64.835938 56.828125 65.207031 56.371094 65.207031 Z M 56.371094 65.207031 " fill-opacity="1" fill-rule="evenodd"/><path fill="#ffffff" d="M 33.835938 65.207031 C 33.378906 65.207031 33.007812 64.835938 33.007812 64.378906 L 33.007812 48.6875 C 33.007812 48.230469 33.378906 47.859375 33.835938 47.859375 C 34.292969 47.859375 34.664062 48.230469 34.664062 48.6875 L 34.664062 64.378906 C 34.675781 64.835938 34.292969 65.207031 33.835938 65.207031 Z M 33.835938 65.207031 " fill-opacity="1" fill-rule="evenodd"/><path fill="#ffffff" d="M 39.453125 65.207031 C 39 65.207031 38.628906 64.835938 38.628906 64.378906 L 38.628906 48.6875 C 38.628906 48.230469 38.996094 47.859375 39.453125 47.859375 C 39.910156 47.859375 40.28125 48.230469 40.28125 48.6875 L 40.28125 64.378906 C 40.292969 64.835938 39.925781 65.207031 39.453125 65.207031 Z M 39.453125 65.207031 " fill-opacity="1" fill-rule="evenodd"/><path fill="#ffffff" d="M 44.886719 65.207031 C 44.429688 65.207031 44.058594 64.835938 44.058594 64.378906 L 44.058594 48.6875 C 44.058594 48.230469 44.429688 47.859375 44.886719 47.859375 C 45.34375 47.859375 45.714844 48.230469 45.714844 48.6875 L 45.714844 64.378906 C 45.714844 64.835938 45.34375 65.207031 44.886719 65.207031 Z M 44.886719 65.207031 " fill-opacity="1" fill-rule="evenodd"/><path fill="#ffffff" d="M 50.519531 65.207031 C 50.0625 65.207031 49.691406 64.835938 49.691406 64.378906 L 49.691406 48.6875 C 49.691406 48.230469 50.0625 47.859375 50.519531 47.859375 C 50.972656 47.859375 51.34375 48.230469 51.34375 48.6875 L 51.34375 64.378906 C 51.34375 64.835938 50.972656 65.207031 50.519531 65.207031 Z M 50.519531 65.207031 " fill-opacity="1" fill-rule="evenodd"/><path fill="#ffffff" d="M 56.371094 54.773438 L 28.082031 54.773438 C 27.625 54.773438 27.257812 54.402344 27.257812 53.949219 C 27.257812 53.492188 27.625 53.121094 28.082031 53.121094 L 56.371094 53.121094 C 56.828125 53.121094 57.199219 53.492188 57.199219 53.949219 C 57.210938 54.402344 56.828125 54.773438 56.371094 54.773438 Z M 56.371094 54.773438 " fill-opacity="1" fill-rule="evenodd"/><path fill="#ffffff" d="M 56.371094 60.230469 L 28.082031 60.230469 C 27.625 60.230469 27.257812 59.863281 27.257812 59.40625 C 27.257812 58.949219 27.625 58.578125 28.082031 58.578125 L 56.371094 58.578125 C 56.828125 58.578125 57.199219 58.949219 57.199219 59.40625 C 57.210938 59.863281 56.828125 60.230469 56.371094 60.230469 Z M 56.371094 60.230469 " fill-opacity="1" fill-rule="evenodd"/><g clip-path="url(#fbcb93ea45)"><g transform="matrix(1, 0, 0, 1, 20, 6)"><g clip-path="url(#5168ccf20d)"><g clip-path="url(#ca53641183)"><path fill="#4040ff" d="M 0.261719 0.429688 L 7.027344 0.429688 L 7.027344 7.9375 L 0.261719 7.9375 Z M 0.261719 0.429688 " fill-opacity="1" fill-rule="nonzero"/></g></g></g></g></svg>