<svg xmlns="http://www.w3.org/2000/svg" xmlns:xlink="http://www.w3.org/1999/xlink" width="590" zoomAndPan="magnify" viewBox="0 0 442.5 86.249997" height="115" preserveAspectRatio="xMidYMid meet" version="1.0"><defs><g/><clipPath id="67ef1140cc"><path d="M 1.210938 0.222656 L 77.964844 0.222656 L 77.964844 76.980469 L 1.210938 76.980469 Z M 1.210938 0.222656 " clip-rule="nonzero"/></clipPath><clipPath id="a06e444ddd"><path d="M 89 5 L 417.367188 5 L 417.367188 72 L 89 72 Z M 89 5 " clip-rule="nonzero"/></clipPath><clipPath id="6d5ded5922"><rect x="0" width="329" y="0" height="67"/></clipPath><clipPath id="7cf186badc"><rect x="0" width="418" y="0" height="78"/></clipPath></defs><g transform="matrix(1, 0, 0, 1, 9, 4)"><g clip-path="url(#7cf186badc)"><g clip-path="url(#67ef1140cc)"><path fill="#4040ff" d="M 1.210938 63.050781 L 1.210938 14.449219 C 1.210938 6.625 7.609375 0.222656 15.433594 0.222656 L 64.035156 0.222656 C 71.859375 0.222656 78.261719 6.625 78.261719 14.449219 L 78.261719 63.050781 C 78.261719 70.871094 71.859375 77.273438 64.035156 77.273438 L 15.433594 77.273438 C 7.609375 77.273438 1.210938 70.871094 1.210938 63.050781 Z M 1.210938 63.050781 " fill-opacity="1" fill-rule="nonzero"/></g><path fill="#ffffff" d="M 20.269531 63.601562 L 59.292969 63.601562 L 59.292969 21.355469 L 51.445312 14.125 L 20.269531 14.125 Z M 60.085938 65.203125 L 19.464844 65.203125 C 19.023438 65.203125 18.667969 64.847656 18.667969 64.40625 L 18.667969 13.332031 C 18.667969 12.890625 19.023438 12.535156 19.464844 12.535156 L 51.742188 12.535156 C 51.941406 12.535156 52.132812 12.605469 52.285156 12.75 L 60.550781 20.359375 L 60.597656 20.394531 C 60.773438 20.550781 60.878906 20.773438 60.878906 21.011719 L 60.878906 64.40625 C 60.878906 64.847656 60.523438 65.203125 60.085938 65.203125 Z M 60.085938 65.203125 " fill-opacity="1" fill-rule="evenodd"/><path fill="#ffffff" d="M 60.085938 21.757812 L 51.753906 21.757812 C 51.316406 21.757812 50.960938 21.402344 50.960938 20.964844 L 50.960938 13.34375 C 50.960938 12.902344 51.316406 12.546875 51.753906 12.546875 C 52.191406 12.546875 52.546875 12.902344 52.546875 13.34375 L 52.546875 20.167969 L 60.085938 20.167969 C 60.523438 20.167969 60.878906 20.523438 60.878906 20.964844 C 60.878906 21.390625 60.523438 21.757812 60.085938 21.757812 Z M 60.085938 21.757812 " fill-opacity="1" fill-rule="evenodd"/><path fill="#ffffff" d="M 25.816406 22.316406 L 46.796875 22.316406 L 46.796875 19.066406 L 25.816406 19.066406 Z M 47.605469 23.902344 L 25.023438 23.902344 C 24.585938 23.902344 24.230469 23.546875 24.230469 23.109375 L 24.230469 18.273438 C 24.230469 17.835938 24.585938 17.480469 25.023438 17.480469 L 47.605469 17.480469 C 48.042969 17.480469 48.398438 17.835938 48.398438 18.273438 L 48.398438 23.109375 C 48.398438 23.546875 48.042969 23.902344 47.605469 23.902344 Z M 47.605469 23.902344 " fill-opacity="1" fill-rule="evenodd"/><path fill="#ffffff" d="M 52.996094 28.65625 L 24.953125 28.65625 C 24.511719 28.65625 24.15625 28.300781 24.15625 27.863281 C 24.15625 27.425781 24.511719 27.070312 24.953125 27.070312 L 52.996094 27.070312 C 53.4375 27.070312 53.792969 27.425781 53.792969 27.863281 C 53.804688 28.300781 53.4375 28.65625 52.996094 28.65625 Z M 52.996094 28.65625 " fill-opacity="1" fill-rule="evenodd"/><path fill="#ffffff" d="M 52.996094 34.300781 L 24.953125 34.300781 C 24.511719 34.300781 24.15625 33.945312 24.15625 33.503906 C 24.15625 33.066406 24.511719 32.710938 24.953125 32.710938 L 52.996094 32.710938 C 53.4375 32.710938 53.792969 33.066406 53.792969 33.503906 C 53.804688 33.945312 53.4375 34.300781 52.996094 34.300781 Z M 52.996094 34.300781 " fill-opacity="1" fill-rule="evenodd"/><path fill="#ffffff" d="M 52.996094 40.15625 L 24.953125 40.15625 C 24.511719 40.15625 24.15625 39.800781 24.15625 39.359375 C 24.15625 38.921875 24.511719 38.566406 24.953125 38.566406 L 52.996094 38.566406 C 53.4375 38.566406 53.792969 38.921875 53.792969 39.359375 C 53.804688 39.800781 53.4375 40.15625 52.996094 40.15625 Z M 52.996094 40.15625 " fill-opacity="1" fill-rule="evenodd"/><path fill="#ffffff" d="M 26.445312 58.71875 L 52.003906 58.71875 L 52.003906 45.242188 L 26.445312 45.242188 Z M 52.808594 60.308594 L 25.652344 60.308594 C 25.210938 60.308594 24.855469 59.953125 24.855469 59.511719 L 24.855469 44.445312 C 24.855469 44.007812 25.210938 43.652344 25.652344 43.652344 L 52.808594 43.652344 C 53.246094 43.652344 53.601562 44.007812 53.601562 44.445312 L 53.601562 59.511719 C 53.613281 59.949219 53.246094 60.308594 52.808594 60.308594 Z M 52.808594 60.308594 " fill-opacity="1" fill-rule="evenodd"/><path fill="#ffffff" d="M 31.175781 60.308594 C 30.738281 60.308594 30.382812 59.953125 30.382812 59.511719 L 30.382812 44.445312 C 30.382812 44.007812 30.738281 43.652344 31.175781 43.652344 C 31.613281 43.652344 31.96875 44.007812 31.96875 44.445312 L 31.96875 59.511719 C 31.980469 59.949219 31.613281 60.308594 31.175781 60.308594 Z M 31.175781 60.308594 " fill-opacity="1" fill-rule="evenodd"/><path fill="#ffffff" d="M 36.570312 60.308594 C 36.128906 60.308594 35.773438 59.953125 35.773438 59.511719 L 35.773438 44.445312 C 35.773438 44.007812 36.128906 43.652344 36.570312 43.652344 C 37.007812 43.652344 37.363281 44.007812 37.363281 44.445312 L 37.363281 59.511719 C 37.375 59.949219 37.019531 60.308594 36.570312 60.308594 Z M 36.570312 60.308594 " fill-opacity="1" fill-rule="evenodd"/><path fill="#ffffff" d="M 41.785156 60.308594 C 41.347656 60.308594 40.988281 59.953125 40.988281 59.511719 L 40.988281 44.445312 C 40.988281 44.007812 41.34375 43.652344 41.785156 43.652344 C 42.222656 43.652344 42.578125 44.007812 42.578125 44.445312 L 42.578125 59.511719 C 42.578125 59.949219 42.222656 60.308594 41.785156 60.308594 Z M 41.785156 60.308594 " fill-opacity="1" fill-rule="evenodd"/><path fill="#ffffff" d="M 47.191406 60.308594 C 46.75 60.308594 46.394531 59.953125 46.394531 59.511719 L 46.394531 44.445312 C 46.394531 44.007812 46.75 43.652344 47.191406 43.652344 C 47.628906 43.652344 47.984375 44.007812 47.984375 44.445312 L 47.984375 59.511719 C 47.984375 59.949219 47.628906 60.308594 47.191406 60.308594 Z M 47.191406 60.308594 " fill-opacity="1" fill-rule="evenodd"/><path fill="#ffffff" d="M 52.808594 50.289062 L 25.652344 50.289062 C 25.210938 50.289062 24.855469 49.933594 24.855469 49.496094 C 24.855469 49.058594 25.210938 48.703125 25.652344 48.703125 L 52.808594 48.703125 C 53.246094 48.703125 53.601562 49.058594 53.601562 49.496094 C 53.613281 49.933594 53.246094 50.289062 52.808594 50.289062 Z M 52.808594 50.289062 " fill-opacity="1" fill-rule="evenodd"/><path fill="#ffffff" d="M 52.808594 55.53125 L 25.652344 55.53125 C 25.210938 55.53125 24.855469 55.175781 24.855469 54.734375 C 24.855469 54.296875 25.210938 53.941406 25.652344 53.941406 L 52.808594 53.941406 C 53.246094 53.941406 53.601562 54.296875 53.601562 54.734375 C 53.613281 55.175781 53.246094 55.53125 52.808594 55.53125 Z M 52.808594 55.53125 " fill-opacity="1" fill-rule="evenodd"/><g clip-path="url(#a06e444ddd)"><g transform="matrix(1, 0, 0, 1, 89, 5)"><g clip-path="url(#6d5ded5922)"><g fill="#4040ff" fill-opacity="1"><g transform="translate(0.0849334, 52.261009)"><g><path d="M 3.953125 -1.59375 L 4.171875 -2.6875 L 4.234375 -3.796875 L 4.125 -5.9375 L 4.125 -7.03125 L 4.015625 -8.296875 L 4.171875 -9.296875 L 4.125 -10.34375 L 4.234375 -11.546875 L 4.0625 -12.703125 L 4.171875 -14.90625 L 4.015625 -17.046875 L 4.171875 -18.203125 L 4.171875 -28.046875 L 4.0625 -29.03125 L 4.171875 -30.1875 L 3.953125 -32.984375 L 4.171875 -34.578125 L 4.0625 -36.78125 L 4.625 -38 L 6.21875 -38.375 L 13.421875 -38.546875 L 14.40625 -38.4375 L 16.546875 -38.484375 L 17.65625 -38.375 L 20.0625 -38.484375 L 21.171875 -38.328125 L 22.15625 -38.4375 L 26.5625 -38.375 L 27.71875 -37.890625 L 28.265625 -36.78125 L 28.09375 -35.734375 L 28.046875 -34.53125 L 28.203125 -33.484375 L 28.3125 -31.234375 L 27.71875 -30.234375 L 26.5625 -29.640625 L 16 -29.578125 L 14.296875 -29.09375 L 13.75 -27.484375 L 13.859375 -25.78125 L 14.515625 -24.796875 L 15.453125 -24.1875 L 19.796875 -24.25 L 21.0625 -24.140625 L 22.21875 -24.140625 L 23.3125 -24.25 L 25.515625 -24.1875 L 26.453125 -23.59375 L 26.9375 -22.546875 L 27.046875 -21.4375 L 26.9375 -17.09375 L 26.390625 -16.0625 L 25.296875 -15.453125 L 24.296875 -15.390625 L 23.140625 -15.5 L 21.65625 -15.390625 L 18.75 -15.5625 L 17.65625 -15.453125 L 15.5 -15.453125 L 14.515625 -14.84375 L 14.015625 -13.6875 L 13.96875 -11 L 14.453125 -9.296875 L 15.609375 -8.625 L 16.828125 -8.75 L 18.03125 -8.625 L 19.078125 -8.796875 L 26.34375 -8.6875 L 27.984375 -8.140625 L 28.703125 -7.03125 L 28.59375 -6 L 28.640625 -2.578125 L 28.53125 -1.546875 L 28.046875 -0.5 L 26.890625 0.0625 L 25.84375 0.171875 L 22.484375 -0.0625 L 19.140625 0.109375 L 18.140625 -0.0625 L 5.71875 0.0625 L 4.671875 -0.546875 Z M 3.953125 -1.59375 "/></g></g></g><g fill="#4040ff" fill-opacity="1"><g transform="translate(31.587481, 52.261009)"><g><path d="M 0.71875 -1.546875 L 1.59375 -3.25 L 4.890625 -8.078125 L 5.328125 -9.015625 L 6.21875 -10.0625 L 6.65625 -10.828125 L 8.078125 -12.75 L 8.40625 -13.578125 L 10.28125 -16.28125 L 10.71875 -17.203125 L 11.484375 -18.203125 L 12.046875 -18.96875 L 12.3125 -20.296875 L 11.9375 -21.609375 L 11.265625 -22.546875 L 10.828125 -23.640625 L 10.28125 -24.578125 L 9.5625 -25.34375 L 8.359375 -27.328125 L 7.703125 -28.203125 L 5.390625 -31.953125 L 4.625 -32.71875 L 4.0625 -33.65625 L 3.40625 -34.578125 L 2.03125 -36.734375 L 2.203125 -38.109375 L 3.578125 -38.484375 L 10.390625 -38.4375 L 11.828125 -38 L 12.75 -37.0625 L 13.421875 -36.125 L 13.859375 -35.1875 L 14.578125 -34.359375 L 17.203125 -29.796875 L 17.984375 -28.75 L 18.6875 -28.8125 L 19.1875 -29.6875 L 19.84375 -30.625 L 21.5 -33.546875 L 22.21875 -34.421875 L 23.859375 -37 L 24.90625 -38 L 26.890625 -38.4375 L 27.9375 -38.484375 L 29.75 -38.375 L 30.90625 -38.484375 L 32.984375 -38.328125 L 34.09375 -37.9375 L 34.46875 -36.84375 L 27.15625 -25.40625 L 26.34375 -24.515625 L 25.671875 -23.59375 L 25.234375 -22.65625 L 24.640625 -21.71875 L 24.1875 -20.40625 L 24.359375 -19.078125 L 25.125 -18.140625 L 26.234375 -16.28125 L 26.9375 -15.5 L 28.046875 -13.578125 L 28.59375 -12.75 L 29.140625 -11.71875 L 29.90625 -10.890625 L 30.578125 -9.953125 L 31.015625 -8.96875 L 31.71875 -8.1875 L 32.21875 -7.3125 L 32.9375 -6.4375 L 35.25 -2.859375 L 35.734375 -1.484375 L 35.515625 -0.328125 L 34.640625 0 L 30.1875 0.109375 L 29.25 0 L 27.109375 0.0625 L 25.890625 -0.328125 L 24.796875 -1.265625 L 20.84375 -7.859375 L 20.515625 -8.75 L 19.734375 -9.671875 L 19.359375 -10.71875 L 18.75 -11.71875 L 18.03125 -11.609375 L 15.609375 -7.859375 L 13.140625 -3.1875 L 11.9375 -1.3125 L 10.78125 -0.4375 L 9.40625 0 L 5.28125 0 L 4.171875 0.109375 L 3.25 0.0625 L 2.140625 0.109375 L 1.046875 -0.328125 Z M 0.71875 -1.546875 "/></g></g></g><g fill="#4040ff" fill-opacity="1"><g transform="translate(68.03807, 52.261009)"><g><path d="M 10.5625 -1.703125 L 10.5 -6 L 10.609375 -7.09375 L 10.453125 -10.453125 L 10.5 -11.609375 L 10.453125 -12.703125 L 10.671875 -14.34375 L 10.5 -15.953125 L 10.5 -18.140625 L 10.609375 -19.25 L 10.5 -20.296875 L 10.671875 -22 L 10.5 -28.046875 L 9.953125 -29.09375 L 8.96875 -29.6875 L 4.0625 -29.75 L 2.640625 -29.578125 L 1.546875 -30.125 L 0.9375 -31.34375 L 0.984375 -36.84375 L 1.546875 -37.9375 L 2.75 -38.484375 L 19.140625 -38.375 L 20.40625 -38.546875 L 21.5 -38.546875 L 22.59375 -38.4375 L 23.703125 -38.4375 L 24.90625 -38.59375 L 25.953125 -38.59375 L 26.828125 -38.484375 L 28.15625 -38.59375 L 29.25 -38.046875 L 29.796875 -36.953125 L 29.6875 -32.4375 L 29.796875 -31.28125 L 29.25 -30.1875 L 27.984375 -29.6875 L 24.96875 -29.75 L 23.96875 -29.640625 L 22.875 -29.6875 L 21.9375 -29.640625 L 20.734375 -29.140625 L 20.296875 -28.15625 L 20.40625 -26.9375 L 20.234375 -25.84375 L 20.453125 -14.90625 L 20.296875 -12.59375 L 20.40625 -11.609375 L 20.296875 -8.25 L 20.125 -7.09375 L 20.296875 -6.15625 L 20.34375 -3.953125 L 20.234375 -2.6875 L 20.296875 -1.65625 L 19.84375 -0.546875 L 18.75 -0.109375 L 15.34375 -0.109375 L 14.296875 0 L 13.203125 -0.109375 L 12.15625 0 L 11 -0.546875 Z M 10.5625 -1.703125 "/></g></g></g><g fill="#4040ff" fill-opacity="1"><g transform="translate(98.221095, 52.261009)"><g><path d="M 4.234375 -1.765625 L 4.0625 -6.046875 L 4.171875 -7.203125 L 3.953125 -10.390625 L 4.125 -12.640625 L 3.953125 -13.859375 L 4.015625 -15.953125 L 4.125 -17.09375 L 4.125 -19.84375 L 3.953125 -21.4375 L 4.125 -36.84375 L 4.5625 -38 L 5.609375 -38.484375 L 6.8125 -38.4375 L 7.859375 -38.59375 L 10.109375 -38.375 L 11.15625 -38.546875 L 14.453125 -38.4375 L 15.390625 -38.546875 L 16.609375 -38.4375 L 17.703125 -38.546875 L 18.921875 -38.484375 L 20.515625 -38.546875 L 21.890625 -38.4375 L 26.453125 -37.5 L 28.375 -36.515625 L 31.125 -34.421875 L 31.609375 -33.59375 L 32.390625 -32.765625 L 33.875 -29.75 L 34.140625 -28.640625 L 34.3125 -27.609375 L 34.578125 -26.5625 L 34.53125 -22.21875 L 33.921875 -20.125 L 33.546875 -19.1875 L 32.9375 -18.203125 L 32.546875 -17.15625 L 31.890625 -16.21875 L 30.34375 -14.734375 L 29.75 -13.578125 L 29.90625 -12.265625 L 31.5625 -9.40625 L 32.28125 -8.515625 L 32.828125 -7.53125 L 33.484375 -6.546875 L 33.984375 -5.609375 L 35.734375 -2.921875 L 36.453125 -1.546875 L 36.234375 -0.390625 L 35.078125 -0.109375 L 33.875 0 L 31.671875 0 L 30.578125 -0.109375 L 29.359375 0 L 27.375 -0.109375 L 26 -0.4375 L 24.90625 -1.421875 L 24.25 -2.3125 L 23.75 -3.25 L 23.03125 -4.28125 L 21.5 -7.03125 L 21.109375 -8.078125 L 19.6875 -10 L 18.796875 -10.9375 L 17.4375 -11.375 L 16.4375 -11.328125 L 15.453125 -11.328125 L 14.34375 -10.78125 L 13.859375 -9.671875 L 13.96875 -6.265625 L 13.796875 -3.90625 L 14.015625 -2.75 L 13.90625 -1.59375 L 13.53125 -0.546875 L 11.828125 0 L 10.171875 0 L 9.015625 -0.109375 L 6.765625 0.0625 L 5.71875 0 L 4.625 -0.546875 Z M 15.453125 -20.234375 L 16.65625 -20.234375 L 17.765625 -20.0625 L 22.046875 -20.453125 L 22.875 -20.84375 L 23.53125 -21.5 L 24.140625 -22.4375 L 24.578125 -23.53125 L 24.75 -25.015625 L 24.640625 -26.609375 L 24.25 -27.484375 L 23.703125 -28.3125 L 22 -29.359375 L 19.46875 -29.6875 L 16.4375 -29.75 L 15.5625 -29.6875 L 14.453125 -29.140625 L 13.796875 -28.046875 L 13.96875 -21.890625 L 14.515625 -20.734375 Z M 15.453125 -20.234375 "/></g></g></g><g fill="#4040ff" fill-opacity="1"><g transform="translate(136.321035, 52.261009)"><g><path d="M 0.71875 -1.484375 L 1.375 -3.796875 L 1.875 -4.890625 L 2.53125 -5.765625 L 4.125 -9.78125 L 5.65625 -12.640625 L 6.046875 -13.75 L 6.546875 -14.625 L 6.875 -15.78125 L 7.640625 -17.203125 L 8.03125 -18.25 L 8.859375 -19.6875 L 9.734375 -21.65625 L 10.34375 -22.65625 L 10.609375 -23.59375 L 13.6875 -30.515625 L 14.296875 -31.5 L 16.65625 -36.453125 L 16.984375 -37.4375 L 18.03125 -38.4375 L 19.796875 -38.984375 L 21.65625 -38.484375 L 22.65625 -37.4375 L 22.984375 -36.40625 L 23.484375 -35.578125 L 24.359375 -33.484375 L 25.453125 -31.453125 L 26.28125 -29.53125 L 26.5625 -28.640625 L 27.546875 -26.5625 L 27.875 -25.515625 L 28.984375 -23.59375 L 29.25 -22.546875 L 29.796875 -21.609375 L 30.234375 -20.671875 L 30.84375 -19.6875 L 31.171875 -18.578125 L 31.671875 -17.765625 L 32.0625 -16.65625 L 32.546875 -15.71875 L 32.984375 -14.625 L 33.59375 -13.75 L 34.359375 -11.71875 L 34.921875 -10.78125 L 35.296875 -9.734375 L 36.234375 -7.75 L 36.5625 -6.703125 L 37.109375 -5.890625 L 37.4375 -4.78125 L 38.15625 -3.84375 L 38.546875 -2.859375 L 38.875 -1.484375 L 38.65625 -0.328125 L 37.671875 0 L 34.25 0.109375 L 32.328125 -0.0625 L 31.34375 0.0625 L 29.90625 -0.5 L 28.984375 -1.375 L 28.375 -2.359375 L 28.09375 -3.359375 L 26.9375 -4.234375 L 25.125 -4.84375 L 22.546875 -4.734375 L 21.390625 -4.84375 L 20.40625 -4.84375 L 19.140625 -4.671875 L 17.984375 -4.84375 L 14.90625 -4.78125 L 13.796875 -4.890625 L 12.484375 -4.34375 L 11.546875 -3.296875 L 10.609375 -1.421875 L 9.625 -0.4375 L 8.359375 0.109375 L 6.921875 -0.0625 L 2.09375 -0.0625 L 0.984375 -0.328125 Z M 17.703125 -13.578125 L 22 -13.640625 L 22.921875 -14.078125 L 23.03125 -15.0625 L 22.65625 -16.0625 L 22.109375 -17.15625 L 21.890625 -18.03125 L 21.28125 -18.96875 L 20.5625 -21.109375 L 19.90625 -21.546875 L 19.1875 -21 L 18.6875 -20.125 L 16.5 -15.125 L 16.65625 -14.015625 Z M 17.703125 -13.578125 "/></g></g></g><g fill="#4040ff" fill-opacity="1"><g transform="translate(175.300563, 52.261009)"><g><path d="M 20.234375 0.546875 L 19.1875 0.546875 L 18.203125 0.328125 L 17.046875 0.21875 L 15.890625 -0.171875 L 15.0625 -0.390625 L 13.96875 -0.765625 L 10.234375 -2.796875 L 9.40625 -3.46875 L 8.46875 -4.0625 L 6.484375 -6 L 4.28125 -9.1875 L 3.90625 -10.109375 L 3.359375 -11.109375 L 3.1875 -12.09375 L 2.75 -13.140625 L 2.203125 -15.28125 L 2.203125 -17.484375 L 1.984375 -19.25 L 2.96875 -26.125 L 5.5 -31.0625 L 6.15625 -32 L 7.640625 -33.375 L 8.296875 -34.25 L 12.15625 -36.734375 L 13.140625 -37.109375 L 13.96875 -37.609375 L 15.015625 -38 L 17.15625 -38.4375 L 18.203125 -38.765625 L 19.140625 -38.875 L 24.140625 -38.875 L 26.890625 -38.484375 L 29.03125 -37.890625 L 32.171875 -36.453125 L 33.375 -35.625 L 36.234375 -33.046875 L 38.265625 -30.234375 L 39.15625 -28.15625 L 39.3125 -27.15625 L 39.75 -26.0625 L 39.421875 -24.90625 L 38.546875 -24.40625 L 37.4375 -24.296875 L 31.890625 -24.40625 L 30.6875 -24.90625 L 29.6875 -25.953125 L 29.203125 -26.890625 L 28.375 -27.765625 L 26.78125 -29.09375 L 25.625 -29.46875 L 23.53125 -29.859375 L 20.125 -29.96875 L 18.203125 -29.421875 L 17.15625 -28.984375 L 15.34375 -27.65625 L 13.96875 -25.953125 L 13.03125 -23.96875 L 12.703125 -22.984375 L 12.640625 -21.890625 L 12.265625 -20.890625 L 12.203125 -19.140625 L 12.375 -16.546875 L 13.03125 -14.40625 L 13.46875 -13.46875 L 15.5 -10.828125 L 16.21875 -10.0625 L 17.265625 -9.5625 L 20.234375 -8.46875 L 23.3125 -8.40625 L 24.46875 -8.515625 L 25.5625 -8.859375 L 27.4375 -9.78125 L 29.53125 -12.046875 L 29.96875 -12.96875 L 31.0625 -14.015625 L 32.28125 -14.578125 L 38.15625 -14.515625 L 39.53125 -13.90625 L 39.859375 -12.921875 L 39.703125 -11.875 L 39.3125 -10.78125 L 39.03125 -9.734375 L 38.546875 -8.75 L 36.890625 -5.890625 L 35.953125 -5.171875 L 35.359375 -4.234375 L 34.640625 -3.515625 L 33.703125 -2.859375 L 32.71875 -2.25 L 31.890625 -1.703125 L 28.859375 -0.390625 L 23.53125 0.71875 Z M 20.234375 0.546875 "/></g></g></g><g fill="#4040ff" fill-opacity="1"><g transform="translate(216.699161, 52.261009)"><g><path d="M 10.5625 -1.703125 L 10.5 -6 L 10.609375 -7.09375 L 10.453125 -10.453125 L 10.5 -11.609375 L 10.453125 -12.703125 L 10.671875 -14.34375 L 10.5 -15.953125 L 10.5 -18.140625 L 10.609375 -19.25 L 10.5 -20.296875 L 10.671875 -22 L 10.5 -28.046875 L 9.953125 -29.09375 L 8.96875 -29.6875 L 4.0625 -29.75 L 2.640625 -29.578125 L 1.546875 -30.125 L 0.9375 -31.34375 L 0.984375 -36.84375 L 1.546875 -37.9375 L 2.75 -38.484375 L 19.140625 -38.375 L 20.40625 -38.546875 L 21.5 -38.546875 L 22.59375 -38.4375 L 23.703125 -38.4375 L 24.90625 -38.59375 L 25.953125 -38.59375 L 26.828125 -38.484375 L 28.15625 -38.59375 L 29.25 -38.046875 L 29.796875 -36.953125 L 29.6875 -32.4375 L 29.796875 -31.28125 L 29.25 -30.1875 L 27.984375 -29.6875 L 24.96875 -29.75 L 23.96875 -29.640625 L 22.875 -29.6875 L 21.9375 -29.640625 L 20.734375 -29.140625 L 20.296875 -28.15625 L 20.40625 -26.9375 L 20.234375 -25.84375 L 20.453125 -14.90625 L 20.296875 -12.59375 L 20.40625 -11.609375 L 20.296875 -8.25 L 20.125 -7.09375 L 20.296875 -6.15625 L 20.34375 -3.953125 L 20.234375 -2.6875 L 20.296875 -1.65625 L 19.84375 -0.546875 L 18.75 -0.109375 L 15.34375 -0.109375 L 14.296875 0 L 13.203125 -0.109375 L 12.15625 0 L 11 -0.546875 Z M 10.5625 -1.703125 "/></g></g></g><g fill="#4040ff" fill-opacity="1"><g transform="translate(245.672575, 52.261009)"><g><path d="M 20.5625 0.65625 L 19.40625 0.546875 L 17.4375 0.109375 L 16.21875 0 L 14.625 -0.546875 L 10.34375 -2.75 L 8.515625 -4.171875 L 7.921875 -4.890625 L 7.09375 -5.65625 L 6.375 -6.546875 L 5.71875 -7.203125 L 3.1875 -12.203125 L 2.6875 -14.296875 L 2.578125 -15.34375 L 2.3125 -16.328125 L 2.140625 -17.484375 L 2.3125 -21.9375 L 3.25 -26.171875 L 4.0625 -28.265625 L 5.765625 -31.171875 L 8.46875 -34.3125 L 10.34375 -35.6875 L 11.328125 -36.1875 L 12.15625 -36.78125 L 16.28125 -38.328125 L 22.109375 -39.15625 L 23.59375 -39.09375 L 26.78125 -38.546875 L 31.015625 -37.21875 L 31.828125 -36.625 L 33.484375 -35.90625 L 34.75 -35.03125 L 36.34375 -33.65625 L 37.890625 -31.953125 L 39.09375 -30.296875 L 40.140625 -28.265625 L 41.515625 -24.140625 L 41.890625 -21.890625 L 42.0625 -19.140625 L 41.84375 -17.546875 L 41.78125 -16.390625 L 41.515625 -15.28125 L 41.453125 -14.296875 L 41.015625 -12.203125 L 40.1875 -10.109375 L 37.78125 -6.4375 L 37 -5.65625 L 36.296875 -4.671875 L 34.75 -3.359375 L 33.703125 -2.859375 L 32.875 -2.203125 L 31.0625 -1.203125 L 26.9375 0.171875 L 23.640625 0.609375 Z M 23.640625 -9.078125 L 24.75 -9.296875 L 25.5625 -9.671875 L 26.5625 -9.953125 L 29.203125 -11.765625 L 29.96875 -12.640625 L 30.296875 -13.46875 L 30.90625 -14.453125 L 31.28125 -15.453125 L 31.71875 -17.484375 L 31.828125 -20.84375 L 31.671875 -21.828125 L 31.171875 -22.875 L 30.515625 -24.96875 L 28.375 -27.21875 L 26.671875 -28.421875 L 25.671875 -28.859375 L 24.6875 -29.09375 L 22.046875 -29.421875 L 20.515625 -29.3125 L 18.359375 -28.75 L 17.65625 -28.484375 L 14.90625 -26.609375 L 13.578125 -24.859375 L 13.25 -23.859375 L 12.8125 -22.875 L 12.640625 -21.828125 L 12.375 -20.84375 L 12.375 -17.484375 L 12.8125 -15.453125 L 13.3125 -14.453125 L 13.578125 -13.578125 L 14.34375 -12.53125 L 15.0625 -11.765625 L 16.546875 -10.5625 L 17.4375 -10.0625 L 19.40625 -9.234375 L 20.625 -9.078125 Z M 23.640625 -9.078125 "/></g></g></g><g fill="#4040ff" fill-opacity="1"><g transform="translate(289.765156, 52.261009)"><g><path d="M 4.234375 -1.765625 L 4.0625 -6.046875 L 4.171875 -7.203125 L 3.953125 -10.390625 L 4.125 -12.640625 L 3.953125 -13.859375 L 4.015625 -15.953125 L 4.125 -17.09375 L 4.125 -19.84375 L 3.953125 -21.4375 L 4.125 -36.84375 L 4.5625 -38 L 5.609375 -38.484375 L 6.8125 -38.4375 L 7.859375 -38.59375 L 10.109375 -38.375 L 11.15625 -38.546875 L 14.453125 -38.4375 L 15.390625 -38.546875 L 16.609375 -38.4375 L 17.703125 -38.546875 L 18.921875 -38.484375 L 20.515625 -38.546875 L 21.890625 -38.4375 L 26.453125 -37.5 L 28.375 -36.515625 L 31.125 -34.421875 L 31.609375 -33.59375 L 32.390625 -32.765625 L 33.875 -29.75 L 34.140625 -28.640625 L 34.3125 -27.609375 L 34.578125 -26.5625 L 34.53125 -22.21875 L 33.921875 -20.125 L 33.546875 -19.1875 L 32.9375 -18.203125 L 32.546875 -17.15625 L 31.890625 -16.21875 L 30.34375 -14.734375 L 29.75 -13.578125 L 29.90625 -12.265625 L 31.5625 -9.40625 L 32.28125 -8.515625 L 32.828125 -7.53125 L 33.484375 -6.546875 L 33.984375 -5.609375 L 35.734375 -2.921875 L 36.453125 -1.546875 L 36.234375 -0.390625 L 35.078125 -0.109375 L 33.875 0 L 31.671875 0 L 30.578125 -0.109375 L 29.359375 0 L 27.375 -0.109375 L 26 -0.4375 L 24.90625 -1.421875 L 24.25 -2.3125 L 23.75 -3.25 L 23.03125 -4.28125 L 21.5 -7.03125 L 21.109375 -8.078125 L 19.6875 -10 L 18.796875 -10.9375 L 17.4375 -11.375 L 16.4375 -11.328125 L 15.453125 -11.328125 L 14.34375 -10.78125 L 13.859375 -9.671875 L 13.96875 -6.265625 L 13.796875 -3.90625 L 14.015625 -2.75 L 13.90625 -1.59375 L 13.53125 -0.546875 L 11.828125 0 L 10.171875 0 L 9.015625 -0.109375 L 6.765625 0.0625 L 5.71875 0 L 4.625 -0.546875 Z M 15.453125 -20.234375 L 16.65625 -20.234375 L 17.765625 -20.0625 L 22.046875 -20.453125 L 22.875 -20.84375 L 23.53125 -21.5 L 24.140625 -22.4375 L 24.578125 -23.53125 L 24.75 -25.015625 L 24.640625 -26.609375 L 24.25 -27.484375 L 23.703125 -28.3125 L 22 -29.359375 L 19.46875 -29.6875 L 16.4375 -29.75 L 15.5625 -29.6875 L 14.453125 -29.140625 L 13.796875 -28.046875 L 13.96875 -21.890625 L 14.515625 -20.734375 Z M 15.453125 -20.234375 "/></g></g></g></g></g></g></g></g></svg>