<svg width="35" height="35" viewBox="0 0 35 35" fill="none" xmlns="http://www.w3.org/2000/svg">
<path d="M7.34961 6.7375V27.9125C7.43711 28.1896 7.72586 28.8925 8.18086 29.4875C8.63586 30.0825 9.59544 30.5229 10.0184 30.6687H25.3309C26.9059 30.6687 27.3871 29.2104 27.4309 28.4812V13.3875L18.7684 4.375H9.27461C7.83961 4.375 7.39336 5.95 7.34961 6.7375Z" fill="#D9D9FF" stroke="black"/>
<path d="M19.3861 17.9274C19.9556 17.3579 20.879 17.3579 21.4485 17.9274C22.018 18.4969 22.018 19.4203 21.4485 19.9898L19.563 21.8753L21.4485 23.7608C22.018 24.3303 22.018 25.2537 21.4485 25.8232C20.879 26.3927 19.9556 26.3927 19.3861 25.8232L17.5006 23.9377L15.6152 25.8232C15.0457 26.3927 14.1223 26.3927 13.5528 25.8232C12.9833 25.2537 12.9833 24.3303 13.5528 23.7608L15.4382 21.8753L13.5528 19.9898C12.9833 19.4203 12.9833 18.4969 13.5528 17.9274C14.1223 17.3579 15.0457 17.3579 15.6152 17.9274L17.5006 19.8129L19.3861 17.9274ZM29.1673 25.9586C29.1673 26.7513 29.1684 27.4336 29.1227 27.9931C29.0756 28.5696 28.9716 29.143 28.6905 29.6947L28.6905 29.6948C28.2711 30.518 27.6018 31.1873 26.7786 31.6067L26.7786 31.6067C26.2268 31.8879 25.6533 31.992 25.0768 32.0391C24.5172 32.0848 23.835 32.0836 23.0423 32.0836H11.959C11.1663 32.0836 10.4841 32.0848 9.92457 32.0391C9.34802 31.992 8.77453 31.888 8.22272 31.6068C7.41228 31.1939 6.75114 30.5388 6.33066 29.7334L6.31084 29.6949C6.02966 29.1431 5.92565 28.5696 5.87855 27.9931C5.83283 27.4336 5.83399 26.7513 5.83399 25.9586V9.04199C5.83399 8.24932 5.83283 7.5671 5.87855 7.00758C5.92565 6.43105 6.02969 5.85761 6.31084 5.30581C6.73028 4.48257 7.39957 3.81324 8.22281 3.3938C8.7746 3.11265 9.34804 3.00866 9.92457 2.96156C10.4841 2.91584 11.1663 2.91699 11.959 2.91699H18.959L18.9952 2.91742C19.3688 2.92669 19.7252 3.07917 19.9902 3.34411L28.7402 12.0941C29.0137 12.3676 29.1673 12.7385 29.1673 13.1253V25.9586ZM20.4173 10.792C20.4173 11.2244 20.4185 11.461 20.4323 11.6311C20.4329 11.6378 20.4335 11.6442 20.434 11.6502C20.4401 11.6508 20.4464 11.6514 20.4532 11.652C20.6232 11.6658 20.8598 11.667 21.2923 11.667H24.1883L20.4173 7.89604V10.792ZM8.75063 25.9586C8.75063 26.7994 8.75177 27.3424 8.78553 27.7556C8.8179 28.1517 8.87284 28.2986 8.90956 28.3707L8.9096 28.3707C9.04944 28.6452 9.27252 28.8682 9.54676 29.0079L9.54693 29.008C9.61902 29.0448 9.7659 29.0997 10.1621 29.1321C10.5753 29.1658 11.1182 29.167 11.959 29.167H23.0423C23.8831 29.167 24.426 29.1658 24.8392 29.1321C25.2354 29.0997 25.3823 29.0448 25.4543 29.0081L25.4545 29.008C25.7288 28.8682 25.9519 28.6451 26.0916 28.3708L26.0917 28.3707C26.1284 28.2986 26.1834 28.1518 26.2158 27.7556C26.2495 27.3424 26.2506 26.7994 26.2506 25.9586V14.5836H21.2923C20.908 14.5836 20.532 14.5848 20.2157 14.5589C19.8823 14.5317 19.489 14.4674 19.0931 14.2658C18.544 13.986 18.0981 13.5397 17.8186 12.9913L17.8186 12.9912C17.6169 12.5953 17.5526 12.2019 17.5254 11.8686C17.4995 11.5522 17.5006 11.1763 17.5006 10.792V5.83363H11.959C11.1182 5.83363 10.5753 5.83478 10.1621 5.86854C9.7659 5.90091 9.61902 5.95587 9.54693 5.99261C9.27254 6.13241 9.04941 6.3555 8.9096 6.62989C8.87287 6.70199 8.8179 6.84891 8.78553 7.24508C8.75177 7.65828 8.75063 8.2012 8.75063 9.04199V25.9586Z" fill="#3F45F3"/>
</svg>
