<svg width="512" height="512" viewBox="0 0 512 512" fill="none" xmlns="http://www.w3.org/2000/svg">
<g clip-path="url(#clip0_477_26)">
<path d="M128 0C92.7 0 64 28.7 64 64V448C64 483.3 92.7 512 128 512H384C419.3 512 448 483.3 448 448V160H320C302.3 160 288 145.7 288 128V0H128ZM320 0V128H448L320 0ZM128 256C128 247.513 131.371 239.374 137.373 233.373C143.374 227.371 151.513 224 160 224C168.487 224 176.626 227.371 182.627 233.373C188.629 239.374 192 247.513 192 256C192 264.487 188.629 272.626 182.627 278.627C176.626 284.629 168.487 288 160 288C151.513 288 143.374 284.629 137.373 278.627C131.371 272.626 128 264.487 128 256ZM280 288C285.3 288 290.2 290.6 293.2 294.9L381.2 422.9C384.6 427.8 384.9 434.2 382.2 439.4C379.5 444.6 374 448 368 448H280H240H192H144C138.2 448 132.9 444.9 130.1 439.9C127.3 434.9 127.3 428.7 130.3 423.8L178.3 343.8C181.2 339 186.4 336 192 336C197.6 336 202.8 338.9 205.7 343.8L218.5 365.2L266.8 295C269.8 290.7 274.7 288.1 280 288.1V288Z" fill="#4040FF"/>
</g>
<defs>
<clipPath id="clip0_477_26">
<rect width="384" height="512" fill="white" transform="translate(64)"/>
</clipPath>
</defs>
</svg>
