<svg width="512" height="512" viewBox="0 0 512 512" fill="none" xmlns="http://www.w3.org/2000/svg">
<g clip-path="url(#clip0_477_33)">
<path d="M176 144V192H336V144C336 99.8 300.2 64 256 64C211.8 64 176 99.8 176 144ZM112 192V144C112 64.5 176.5 0 256 0C335.5 0 400 64.5 400 144V192H416C451.3 192 480 220.7 480 256V448C480 483.3 451.3 512 416 512H96C60.7 512 32 483.3 32 448V256C32 220.7 60.7 192 96 192H112Z" fill="#4040FF"/>
</g>
<defs>
<clipPath id="clip0_477_33">
<rect width="448" height="512" fill="white" transform="translate(32)"/>
</clipPath>
</defs>
</svg>
