<svg width="37" height="37" viewBox="0 0 37 37" fill="none" xmlns="http://www.w3.org/2000/svg">
<rect width="37" height="37" rx="4" fill="#E9E9E9"/>
<g clip-path="url(#clip0_504_93)">
<path d="M28.2369 8.76318H8.76318V28.2369H28.2369V8.76318Z" fill="white"/>
<path d="M28.2369 37L37 28.2368L32.6184 27.4893L28.2369 28.2368L27.4371 32.2446L28.2369 37Z" fill="#EA4335"/>
<path d="M0 28.2368V34.0789C0 35.6928 1.30717 37 2.92105 37H8.76316L9.66291 32.6184L8.76316 28.2368L3.98895 27.4893L0 28.2368Z" fill="#188038"/>
<path d="M37 8.76316V2.92105C37 1.30717 35.6928 0 34.079 0H28.2369C27.7037 2.17315 27.4371 3.77242 27.4371 4.79782C27.4371 5.82321 27.7037 7.14499 28.2369 8.76316C30.175 9.31814 31.6355 9.59564 32.6184 9.59564C33.6014 9.59564 35.0619 9.31814 37 8.76316Z" fill="#1967D2"/>
<path d="M37 8.76318H28.2368V28.2369H37V8.76318Z" fill="#FBBC04"/>
<path d="M28.2369 28.2368H8.76318V37H28.2369V28.2368Z" fill="#34A853"/>
<path d="M28.2368 0H2.92105C1.30717 0 0 1.30717 0 2.92105V28.2368H8.76316V8.76316H28.2368V0Z" fill="#4285F4"/>
<path d="M12.7578 23.87C12.0299 23.3783 11.526 22.6602 11.251 21.7108L12.9403 21.0146C13.0937 21.5989 13.3614 22.0516 13.7436 22.3729C14.1233 22.6943 14.5858 22.8525 15.1262 22.8525C15.6788 22.8525 16.1535 22.6845 16.5503 22.3486C16.947 22.0127 17.1466 21.5843 17.1466 21.0658C17.1466 20.5351 16.9373 20.1018 16.5186 19.7659C16.0999 19.43 15.5741 19.262 14.9461 19.262H13.97V17.5897H14.8463C15.3867 17.5897 15.8419 17.4437 16.2119 17.1516C16.5819 16.8594 16.7669 16.4602 16.7669 15.9515C16.7669 15.4987 16.6014 15.1385 16.2703 14.8683C15.9393 14.5981 15.5206 14.4618 15.0118 14.4618C14.5153 14.4618 14.1209 14.5932 13.8288 14.8585C13.5369 15.1246 13.3174 15.4605 13.191 15.8346L11.5187 15.1385C11.7403 14.5104 12.1468 13.9554 12.7431 13.4759C13.3395 12.9964 14.1014 12.7554 15.0264 12.7554C15.7105 12.7554 16.3263 12.8868 16.8716 13.1521C17.4168 13.4175 17.8453 13.785 18.1544 14.2524C18.4635 14.7222 18.6169 15.248 18.6169 15.8322C18.6169 16.4286 18.4733 16.9325 18.186 17.3463C17.8988 17.7601 17.5458 18.0766 17.1272 18.2981V18.3979C17.6678 18.6208 18.1374 18.9869 18.4855 19.4568C18.8384 19.9314 19.0161 20.4986 19.0161 21.1607C19.0161 21.8228 18.8481 22.4143 18.5122 22.9328C18.1763 23.4513 17.7114 23.8602 17.1223 24.1572C16.5308 24.4542 15.8662 24.6051 15.1287 24.6051C14.2743 24.6075 13.4856 24.3617 12.7578 23.87ZM23.1348 15.4866L21.2799 16.8278L20.3525 15.4208L23.6801 13.0207H24.9556V24.3422H23.1348V15.4866Z" fill="#4285F4"/>
</g>
<defs>
<clipPath id="clip0_504_93">
<rect width="37" height="37" fill="white"/>
</clipPath>
</defs>
</svg>
