<svg width="37" height="37" viewBox="0 0 37 37" fill="none" xmlns="http://www.w3.org/2000/svg">
<rect width="37" height="37" rx="4" fill="#1967D2"/>
<path d="M22.4271 25.7498V24.2394H20.9166C20.4161 24.2394 20.0104 23.8337 20.0104 23.3332C20.0104 22.8327 20.4161 22.4269 20.9166 22.4269H22.4271V20.9165C22.4271 20.416 22.8328 20.0103 23.3333 20.0103C23.8338 20.0103 24.2396 20.416 24.2396 20.9165V22.4269H25.7499C26.2505 22.4269 26.6562 22.8327 26.6562 23.3332C26.6562 23.8337 26.2505 24.2394 25.7499 24.2394H24.2396V25.7498C24.2396 26.2503 23.8338 26.6561 23.3333 26.6561C22.8328 26.6561 22.4271 26.2503 22.4271 25.7498Z" fill="white"/>
<path d="M11.5521 8.8335V7.021C11.5521 6.52049 11.9579 6.11475 12.4584 6.11475C12.9589 6.11475 13.3646 6.52049 13.3646 7.021V8.8335C13.3646 9.334 12.9589 9.73975 12.4584 9.73975C11.9579 9.73975 11.5521 9.334 11.5521 8.8335Z" fill="white"/>
<path d="M23.6354 8.8335V7.021C23.6354 6.52049 24.0411 6.11475 24.5416 6.11475C25.0421 6.11475 25.4479 6.52049 25.4479 7.021V8.8335C25.4479 9.334 25.0421 9.73975 24.5416 9.73975C24.0411 9.73975 23.6354 9.334 23.6354 8.8335Z" fill="white"/>
<path d="M11.0989 13.9688C11.5994 13.9688 12.0052 14.3745 12.0052 14.875C12.0052 15.3755 11.5994 15.7812 11.0989 15.7812H6.41663C5.91612 15.7812 5.51038 15.3755 5.51038 14.875C5.51038 14.3745 5.91612 13.9688 6.41663 13.9688H11.0989ZM29.9791 13.9688C30.4796 13.9688 30.8854 14.3745 30.8854 14.875C30.8854 15.3755 30.4796 15.7812 29.9791 15.7812H16.9896C16.489 15.7812 16.0833 15.3755 16.0833 14.875C16.0833 14.3745 16.489 13.9688 16.9896 13.9688H29.9791Z" fill="white"/>
<path d="M29.6771 20.9168V18.5002C29.6771 16.1961 29.6751 14.5592 29.5082 13.3175C29.3447 12.1018 29.0382 11.4014 28.5268 10.89V10.8899C28.0155 10.3786 27.3151 10.0721 26.0993 9.90861C24.8576 9.74166 23.2207 9.73975 20.9166 9.73975H16.0833C13.7792 9.73975 12.1423 9.74166 10.9006 9.90861C9.68489 10.0721 8.98445 10.3786 8.47307 10.89C7.9617 11.4014 7.65518 12.1018 7.49174 13.3175C7.32479 14.5592 7.32288 16.1961 7.32288 18.5002V20.9168C7.32288 23.2209 7.32479 24.8578 7.49174 26.0995C7.65263 27.2963 7.95217 27.9936 8.44925 28.5029L8.47307 28.527L8.47311 28.527C8.98449 29.0384 9.68491 29.3449 10.9006 29.5084C12.1423 29.6753 13.7792 29.6772 16.0833 29.6772H20.9166C21.4171 29.6772 21.8229 30.083 21.8229 30.5835C21.8229 31.084 21.4171 31.4897 20.9166 31.4897H16.0833C13.8305 31.4897 12.0497 31.4917 10.659 31.3047C9.24237 31.1142 8.09574 30.7129 7.19147 29.8086C6.28719 28.9044 5.88588 27.7577 5.69541 26.3411C5.50845 24.9505 5.51038 23.1696 5.51038 20.9168V18.5002C5.51038 16.2473 5.50845 14.4665 5.69541 13.0759C5.88588 11.6592 6.28721 10.5126 7.19147 9.60834L7.23402 9.56632C8.13163 8.69158 9.2645 8.29978 10.659 8.11228C12.0496 7.92532 13.8305 7.92725 16.0833 7.92725H20.9166C23.1694 7.92725 24.9502 7.92532 26.3409 8.11228C27.7575 8.30275 28.9042 8.70403 29.8084 9.60831L29.8504 9.65089C30.7252 10.5485 31.117 11.6814 31.3045 13.0759C31.4915 14.4665 31.4896 16.2473 31.4896 18.5002V20.9168C31.4896 23.1696 31.4915 24.9505 31.3045 26.3411C31.114 27.7577 30.7127 28.9043 29.8084 29.8086L29.8084 29.8086C28.7996 30.8175 27.4891 31.2004 25.8387 31.3628C25.3406 31.4118 24.8971 31.0477 24.8481 30.5496C24.799 30.0515 25.1631 29.6079 25.6612 29.5589C27.1527 29.4122 27.9571 29.0967 28.5268 28.527H28.5268C29.0382 28.0157 29.3447 27.3152 29.5082 26.0995C29.6751 24.8578 29.6771 23.2209 29.6771 20.9168Z" fill="white"/>
</svg>
