<svg xmlns="http://www.w3.org/2000/svg" xmlns:xlink="http://www.w3.org/1999/xlink" width="512" zoomAndPan="magnify" viewBox="0 0 384 383.999986" height="512" preserveAspectRatio="xMidYMid meet" version="1.0"><defs><clipPath id="eba4589568"><path d="M 29.53125 29.53125 L 354.46875 29.53125 L 354.46875 354.46875 L 29.53125 354.46875 Z M 29.53125 29.53125 " clip-rule="nonzero"/></clipPath><clipPath id="9fc45eb6d7"><path d="M 192 29.53125 C 102.269531 29.53125 29.53125 102.269531 29.53125 192 C 29.53125 281.730469 102.269531 354.46875 192 354.46875 C 281.730469 354.46875 354.46875 281.730469 354.46875 192 C 354.46875 102.269531 281.730469 29.53125 192 29.53125 Z M 192 29.53125 " clip-rule="nonzero"/></clipPath><clipPath id="e07e01de76"><path d="M 0.53125 0.53125 L 325.46875 0.53125 L 325.46875 325.46875 L 0.53125 325.46875 Z M 0.53125 0.53125 " clip-rule="nonzero"/></clipPath><clipPath id="955fb43844"><path d="M 163 0.53125 C 73.269531 0.53125 0.53125 73.269531 0.53125 163 C 0.53125 252.730469 73.269531 325.46875 163 325.46875 C 252.730469 325.46875 325.46875 252.730469 325.46875 163 C 325.46875 73.269531 252.730469 0.53125 163 0.53125 Z M 163 0.53125 " clip-rule="nonzero"/></clipPath><clipPath id="316c678978"><rect x="0" width="326" y="0" height="326"/></clipPath><clipPath id="c2115c5fec"><path d="M 15.222656 15.222656 L 368.777344 15.222656 L 368.777344 368.777344 L 15.222656 368.777344 Z M 15.222656 15.222656 " clip-rule="nonzero"/></clipPath><clipPath id="da6c4fb203"><path d="M 192 15.222656 C 94.367188 15.222656 15.222656 94.367188 15.222656 192 C 15.222656 289.632812 94.367188 368.777344 192 368.777344 C 289.632812 368.777344 368.777344 289.632812 368.777344 192 C 368.777344 94.367188 289.632812 15.222656 192 15.222656 Z M 192 15.222656 " clip-rule="nonzero"/></clipPath><clipPath id="80a72452a3"><path d="M 0.222656 0.222656 L 353.777344 0.222656 L 353.777344 353.777344 L 0.222656 353.777344 Z M 0.222656 0.222656 " clip-rule="nonzero"/></clipPath><clipPath id="705537d639"><path d="M 177 0.222656 C 79.367188 0.222656 0.222656 79.367188 0.222656 177 C 0.222656 274.632812 79.367188 353.777344 177 353.777344 C 274.632812 353.777344 353.777344 274.632812 353.777344 177 C 353.777344 79.367188 274.632812 0.222656 177 0.222656 Z M 177 0.222656 " clip-rule="nonzero"/></clipPath><clipPath id="847dec52d4"><rect x="0" width="354" y="0" height="354"/></clipPath><clipPath id="d6ee352165"><path d="M 77 87 L 307 87 L 307 280 L 77 280 Z M 77 87 " clip-rule="nonzero"/></clipPath><clipPath id="fe664ce223"><path d="M 78.984375 285.320312 L 73.582031 90.394531 L 305.246094 83.976562 L 310.644531 278.902344 Z M 78.984375 285.320312 " clip-rule="nonzero"/></clipPath><clipPath id="eb191da77e"><path d="M 78.984375 285.320312 L 73.582031 90.394531 L 305.246094 83.976562 L 310.644531 278.902344 Z M 78.984375 285.320312 " clip-rule="nonzero"/></clipPath></defs><g clip-path="url(#eba4589568)"><g clip-path="url(#9fc45eb6d7)"><g transform="matrix(1, 0, 0, 1, 29, 29)"><g clip-path="url(#316c678978)"><g clip-path="url(#e07e01de76)"><g clip-path="url(#955fb43844)"><path fill="#ffffff" d="M 0.53125 0.53125 L 325.46875 0.53125 L 325.46875 325.46875 L 0.53125 325.46875 Z M 0.53125 0.53125 " fill-opacity="1" fill-rule="nonzero"/></g></g></g></g></g></g><g clip-path="url(#c2115c5fec)"><g clip-path="url(#da6c4fb203)"><g transform="matrix(1, 0, 0, 1, 15, 15)"><g clip-path="url(#847dec52d4)"><g clip-path="url(#80a72452a3)"><g clip-path="url(#705537d639)"><path fill="#4040ff" d="M 0.222656 0.222656 L 353.777344 0.222656 L 353.777344 353.777344 L 0.222656 353.777344 Z M 0.222656 0.222656 " fill-opacity="1" fill-rule="nonzero"/></g></g></g></g></g></g><g clip-path="url(#d6ee352165)"><g clip-path="url(#fe664ce223)"><g clip-path="url(#eb191da77e)"><path fill="#ffffff" d="M 279.351562 210.816406 C 282.390625 211.398438 281.824219 208.410156 282.519531 206.226562 C 286.410156 193.996094 287.640625 167.273438 293.449219 158.011719 C 295.8125 154.238281 302.789062 153.882812 306.96875 153.847656 C 307.390625 176.0625 303.351562 198.136719 302.09375 220.335938 C 301.0625 238.339844 307.101562 257.226562 294.507812 272.21875 C 283.96875 284.753906 285.730469 278.128906 280.460938 274.429688 C 271.957031 268.460938 239.164062 254.4375 228.003906 250.074219 C 214.28125 244.703125 201.011719 238.976562 185.753906 240.398438 C 190.230469 218.140625 206.488281 211.355469 227.777344 217.933594 C 232.5625 219.414062 250.449219 229.652344 251.773438 229.527344 C 253.011719 229.410156 254.796875 226.664062 254.59375 224.34375 C 254.175781 219.5 236.582031 180.269531 233.019531 173.078125 C 220.96875 148.78125 197.644531 114.25 167.648438 113.984375 C 108.332031 113.460938 115.828125 188.53125 94.828125 227.640625 C 93.570312 237.453125 90.464844 252.605469 78.191406 252.351562 C 77.878906 248.402344 77.800781 244.476562 78.386719 240.523438 C 81.09375 222.3125 91.71875 185.210938 97.59375 166.820312 C 106.042969 140.363281 133.824219 94.457031 162.960938 88.667969 C 228.207031 75.710938 260.214844 163.792969 279.351562 210.796875 Z M 279.351562 210.816406 " fill-opacity="1" fill-rule="nonzero"/></g></g></g></svg>